<?xml version="1.0" encoding="utf-8" ?>
<svg baseProfile="full" height="64px" version="1.1" width="64px" xmlns="http://www.w3.org/2000/svg" xmlns:ev="http://www.w3.org/2001/xml-events" xmlns:xlink="http://www.w3.org/1999/xlink"><defs /><rect fill="rgb(0,0,0)" height="4px" shape-rendering="crispEdges" width="4px" x="16px" y="8px" /><rect fill="rgb(0,0,0)" height="4px" shape-rendering="crispEdges" width="4px" x="16px" y="12px" /><rect fill="rgb(0,0,0)" height="4px" shape-rendering="crispEdges" width="4px" x="16px" y="16px" /><rect fill="rgb(0,0,0)" height="4px" shape-rendering="crispEdges" width="4px" x="20px" y="8px" /><rect fill="rgb(0,0,0)" height="4px" shape-rendering="crispEdges" width="4px" x="20px" y="12px" /><rect fill="rgb(0,0,0)" height="4px" shape-rendering="crispEdges" width="4px" x="20px" y="16px" /><rect fill="rgb(0,0,0)" height="4px" shape-rendering="crispEdges" width="4px" x="20px" y="20px" /><rect fill="rgb(0,0,0)" height="4px" shape-rendering="crispEdges" width="4px" x="24px" y="8px" /><rect fill="rgb(0,0,0)" height="4px" shape-rendering="crispEdges" width="4px" x="24px" y="12px" /><rect fill="rgb(0,0,0)" height="4px" shape-rendering="crispEdges" width="4px" x="24px" y="16px" /><rect fill="rgb(0,0,0)" height="4px" shape-rendering="crispEdges" width="4px" x="36px" y="8px" /><rect fill="rgb(0,0,0)" height="4px" shape-rendering="crispEdges" width="4px" x="36px" y="12px" /><rect fill="rgb(0,0,0)" height="4px" shape-rendering="crispEdges" width="4px" x="36px" y="16px" /><rect fill="rgb(0,0,0)" height="4px" shape-rendering="crispEdges" width="4px" x="40px" y="8px" /><rect fill="rgb(0,0,0)" height="4px" shape-rendering="crispEdges" width="4px" x="40px" y="12px" /><rect fill="rgb(0,0,0)" height="4px" shape-rendering="crispEdges" width="4px" x="40px" y="16px" /><rect fill="rgb(0,0,0)" height="4px" shape-rendering="crispEdges" width="4px" x="40px" y="20px" /><rect fill="rgb(0,0,0)" height="4px" shape-rendering="crispEdges" width="4px" x="44px" y="8px" /><rect fill="rgb(0,0,0)" height="4px" shape-rendering="crispEdges" width="4px" x="44px" y="12px" /><rect fill="rgb(0,0,0)" height="4px" shape-rendering="crispEdges" width="4px" x="44px" y="16px" /></svg>