<?xml version="1.0" encoding="utf-8" ?>
<svg baseProfile="full" height="64px" version="1.1" width="64px" xmlns="http://www.w3.org/2000/svg" xmlns:ev="http://www.w3.org/2001/xml-events" xmlns:xlink="http://www.w3.org/1999/xlink"><defs /><rect fill="rgb(255,255,255)" height="4px" shape-rendering="crispEdges" width="4px" x="12px" y="40px" /><rect fill="rgb(255,255,255)" height="4px" shape-rendering="crispEdges" width="4px" x="12px" y="44px" /><rect fill="rgb(255,255,255)" height="4px" shape-rendering="crispEdges" width="4px" x="12px" y="48px" /><rect fill="rgb(0,0,0)" height="4px" shape-rendering="crispEdges" width="4px" x="12px" y="52px" /><rect fill="rgb(255,255,255)" height="4px" shape-rendering="crispEdges" width="4px" x="16px" y="12px" /><rect fill="rgb(255,255,255)" height="4px" shape-rendering="crispEdges" width="4px" x="16px" y="16px" /><rect fill="rgb(255,255,255)" height="4px" shape-rendering="crispEdges" width="4px" x="16px" y="20px" /><rect fill="rgb(0,0,0)" height="4px" shape-rendering="crispEdges" width="4px" x="16px" y="24px" /><rect fill="rgb(255,255,255)" height="4px" shape-rendering="crispEdges" width="4px" x="16px" y="36px" /><rect fill="rgb(255,255,255)" height="4px" shape-rendering="crispEdges" width="4px" x="16px" y="40px" /><rect fill="rgb(255,255,255)" height="4px" shape-rendering="crispEdges" width="4px" x="16px" y="44px" /><rect fill="rgb(255,255,255)" height="4px" shape-rendering="crispEdges" width="4px" x="16px" y="48px" /><rect fill="rgb(255,255,255)" height="4px" shape-rendering="crispEdges" width="4px" x="16px" y="52px" /><rect fill="rgb(0,0,0)" height="4px" shape-rendering="crispEdges" width="4px" x="16px" y="56px" /><rect fill="rgb(255,255,255)" height="4px" shape-rendering="crispEdges" width="4px" x="20px" y="8px" /><rect fill="rgb(255,255,255)" height="4px" shape-rendering="crispEdges" width="4px" x="20px" y="12px" /><rect fill="rgb(255,255,255)" height="4px" shape-rendering="crispEdges" width="4px" x="20px" y="16px" /><rect fill="rgb(255,255,255)" height="4px" shape-rendering="crispEdges" width="4px" x="20px" y="20px" /><rect fill="rgb(255,255,255)" height="4px" shape-rendering="crispEdges" width="4px" x="20px" y="24px" /><rect fill="rgb(0,0,0)" height="4px" shape-rendering="crispEdges" width="4px" x="20px" y="28px" /><rect fill="rgb(255,255,255)" height="4px" shape-rendering="crispEdges" width="4px" x="20px" y="32px" /><rect fill="rgb(255,255,255)" height="4px" shape-rendering="crispEdges" width="4px" x="20px" y="36px" /><rect fill="rgb(0,0,0)" height="4px" shape-rendering="crispEdges" width="4px" x="20px" y="40px" /><rect fill="rgb(255,255,255)" height="4px" shape-rendering="crispEdges" width="4px" x="20px" y="48px" /><rect fill="rgb(255,255,255)" height="4px" shape-rendering="crispEdges" width="4px" x="20px" y="52px" /><rect fill="rgb(0,0,0)" height="4px" shape-rendering="crispEdges" width="4px" x="20px" y="56px" /><rect fill="rgb(255,255,255)" height="4px" shape-rendering="crispEdges" width="4px" x="24px" y="4px" /><rect fill="rgb(255,255,255)" height="4px" shape-rendering="crispEdges" width="4px" x="24px" y="8px" /><rect fill="rgb(0,0,0)" height="4px" shape-rendering="crispEdges" width="4px" x="24px" y="12px" /><rect fill="rgb(255,255,255)" height="4px" shape-rendering="crispEdges" width="4px" x="24px" y="24px" /><rect fill="rgb(255,255,255)" height="4px" shape-rendering="crispEdges" width="4px" x="24px" y="28px" /><rect fill="rgb(255,255,255)" height="4px" shape-rendering="crispEdges" width="4px" x="24px" y="32px" /><rect fill="rgb(0,0,0)" height="4px" shape-rendering="crispEdges" width="4px" x="24px" y="36px" /><rect fill="rgb(255,255,255)" height="4px" shape-rendering="crispEdges" width="4px" x="24px" y="52px" /><rect fill="rgb(0,0,0)" height="4px" shape-rendering="crispEdges" width="4px" x="24px" y="56px" /><rect fill="rgb(255,255,255)" height="4px" shape-rendering="crispEdges" width="4px" x="28px" y="4px" /><rect fill="rgb(0,0,0)" height="4px" shape-rendering="crispEdges" width="4px" x="28px" y="8px" /><rect fill="rgb(255,255,255)" height="4px" shape-rendering="crispEdges" width="4px" x="28px" y="28px" /><rect fill="rgb(255,255,255)" height="4px" shape-rendering="crispEdges" width="4px" x="28px" y="32px" /><rect fill="rgb(0,0,0)" height="4px" shape-rendering="crispEdges" width="4px" x="28px" y="36px" /><rect fill="rgb(255,255,255)" height="4px" shape-rendering="crispEdges" width="4px" x="28px" y="52px" /><rect fill="rgb(0,0,0)" height="4px" shape-rendering="crispEdges" width="4px" x="28px" y="56px" /><rect fill="rgb(255,255,255)" height="4px" shape-rendering="crispEdges" width="4px" x="32px" y="4px" /><rect fill="rgb(255,255,255)" height="4px" shape-rendering="crispEdges" width="4px" x="32px" y="8px" /><rect fill="rgb(0,0,0)" height="4px" shape-rendering="crispEdges" width="4px" x="32px" y="12px" /><rect fill="rgb(255,255,255)" height="4px" shape-rendering="crispEdges" width="4px" x="32px" y="24px" /><rect fill="rgb(255,255,255)" height="4px" shape-rendering="crispEdges" width="4px" x="32px" y="28px" /><rect fill="rgb(255,255,255)" height="4px" shape-rendering="crispEdges" width="4px" x="32px" y="32px" /><rect fill="rgb(255,255,255)" height="4px" shape-rendering="crispEdges" width="4px" x="32px" y="36px" /><rect fill="rgb(0,0,0)" height="4px" shape-rendering="crispEdges" width="4px" x="32px" y="40px" /><rect fill="rgb(255,255,255)" height="4px" shape-rendering="crispEdges" width="4px" x="32px" y="52px" /><rect fill="rgb(0,0,0)" height="4px" shape-rendering="crispEdges" width="4px" x="32px" y="56px" /><rect fill="rgb(255,255,255)" height="4px" shape-rendering="crispEdges" width="4px" x="36px" y="8px" /><rect fill="rgb(255,255,255)" height="4px" shape-rendering="crispEdges" width="4px" x="36px" y="12px" /><rect fill="rgb(255,255,255)" height="4px" shape-rendering="crispEdges" width="4px" x="36px" y="16px" /><rect fill="rgb(255,255,255)" height="4px" shape-rendering="crispEdges" width="4px" x="36px" y="20px" /><rect fill="rgb(255,255,255)" height="4px" shape-rendering="crispEdges" width="4px" x="36px" y="24px" /><rect fill="rgb(0,0,0)" height="4px" shape-rendering="crispEdges" width="4px" x="36px" y="28px" /><rect fill="rgb(255,255,255)" height="4px" shape-rendering="crispEdges" width="4px" x="36px" y="36px" /><rect fill="rgb(255,255,255)" height="4px" shape-rendering="crispEdges" width="4px" x="36px" y="40px" /><rect fill="rgb(0,0,0)" height="4px" shape-rendering="crispEdges" width="4px" x="36px" y="44px" /><rect fill="rgb(255,255,255)" height="4px" shape-rendering="crispEdges" width="4px" x="36px" y="48px" /><rect fill="rgb(255,255,255)" height="4px" shape-rendering="crispEdges" width="4px" x="36px" y="52px" /><rect fill="rgb(0,0,0)" height="4px" shape-rendering="crispEdges" width="4px" x="36px" y="56px" /><rect fill="rgb(255,255,255)" height="4px" shape-rendering="crispEdges" width="4px" x="40px" y="12px" /><rect fill="rgb(255,255,255)" height="4px" shape-rendering="crispEdges" width="4px" x="40px" y="16px" /><rect fill="rgb(255,255,255)" height="4px" shape-rendering="crispEdges" width="4px" x="40px" y="20px" /><rect fill="rgb(0,0,0)" height="4px" shape-rendering="crispEdges" width="4px" x="40px" y="24px" /><rect fill="rgb(255,255,255)" height="4px" shape-rendering="crispEdges" width="4px" x="40px" y="36px" /><rect fill="rgb(255,255,255)" height="4px" shape-rendering="crispEdges" width="4px" x="40px" y="40px" /><rect fill="rgb(255,255,255)" height="4px" shape-rendering="crispEdges" width="4px" x="40px" y="44px" /><rect fill="rgb(255,255,255)" height="4px" shape-rendering="crispEdges" width="4px" x="40px" y="48px" /><rect fill="rgb(0,0,0)" height="4px" shape-rendering="crispEdges" width="4px" x="40px" y="52px" /><rect fill="rgb(255,255,255)" height="4px" shape-rendering="crispEdges" width="4px" x="44px" y="32px" /><rect fill="rgb(255,255,255)" height="4px" shape-rendering="crispEdges" width="4px" x="44px" y="36px" /><rect fill="rgb(255,255,255)" height="4px" shape-rendering="crispEdges" width="4px" x="44px" y="40px" /><rect fill="rgb(255,255,255)" height="4px" shape-rendering="crispEdges" width="4px" x="44px" y="44px" /><rect fill="rgb(0,0,0)" height="4px" shape-rendering="crispEdges" width="4px" x="44px" y="48px" /><rect fill="rgb(255,255,255)" height="4px" shape-rendering="crispEdges" width="4px" x="48px" y="28px" /><rect fill="rgb(255,255,255)" height="4px" shape-rendering="crispEdges" width="4px" x="48px" y="32px" /><rect fill="rgb(0,0,0)" height="4px" shape-rendering="crispEdges" width="4px" x="48px" y="36px" /><rect fill="rgb(255,255,255)" height="4px" shape-rendering="crispEdges" width="4px" x="48px" y="44px" /><rect fill="rgb(255,255,255)" height="4px" shape-rendering="crispEdges" width="4px" x="48px" y="48px" /><rect fill="rgb(0,0,0)" height="4px" shape-rendering="crispEdges" width="4px" x="48px" y="52px" /><rect fill="rgb(255,255,255)" height="4px" shape-rendering="crispEdges" width="4px" x="52px" y="28px" /><rect fill="rgb(0,0,0)" height="4px" shape-rendering="crispEdges" width="4px" x="52px" y="32px" /><rect fill="rgb(255,255,255)" height="4px" shape-rendering="crispEdges" width="4px" x="52px" y="48px" /><rect fill="rgb(255,255,255)" height="4px" shape-rendering="crispEdges" width="4px" x="52px" y="52px" /><rect fill="rgb(0,0,0)" height="4px" shape-rendering="crispEdges" width="4px" x="52px" y="56px" /></svg>