<?xml version="1.0" encoding="utf-8" ?>
<svg baseProfile="full" height="32px" version="1.1" width="16px" xmlns="http://www.w3.org/2000/svg" xmlns:ev="http://www.w3.org/2001/xml-events" xmlns:xlink="http://www.w3.org/1999/xlink"><defs /><rect fill="rgb(255,255,255)" height="4px" shape-rendering="crispEdges" width="4px" x="0px" y="4px" /><rect fill="rgb(255,255,255)" height="4px" shape-rendering="crispEdges" width="4px" x="0px" y="8px" /><rect fill="rgb(255,255,255)" height="4px" shape-rendering="crispEdges" width="4px" x="0px" y="12px" /><rect fill="rgb(255,255,255)" height="4px" shape-rendering="crispEdges" width="4px" x="0px" y="16px" /><rect fill="rgb(255,255,255)" height="4px" shape-rendering="crispEdges" width="4px" x="0px" y="20px" /><rect fill="rgb(0,0,0)" height="4px" shape-rendering="crispEdges" width="4px" x="0px" y="24px" /><rect fill="rgb(255,255,255)" height="4px" shape-rendering="crispEdges" width="4px" x="4px" y="4px" /><rect fill="rgb(255,255,255)" height="4px" shape-rendering="crispEdges" width="4px" x="4px" y="8px" /><rect fill="rgb(255,255,255)" height="4px" shape-rendering="crispEdges" width="4px" x="4px" y="12px" /><rect fill="rgb(0,0,0)" height="4px" shape-rendering="crispEdges" width="4px" x="4px" y="16px" /><rect fill="rgb(255,255,255)" height="4px" shape-rendering="crispEdges" width="4px" x="8px" y="4px" /><rect fill="rgb(255,255,255)" height="4px" shape-rendering="crispEdges" width="4px" x="8px" y="8px" /><rect fill="rgb(255,255,255)" height="4px" shape-rendering="crispEdges" width="4px" x="8px" y="12px" /><rect fill="rgb(255,255,255)" height="4px" shape-rendering="crispEdges" width="4px" x="8px" y="16px" /><rect fill="rgb(255,255,255)" height="4px" shape-rendering="crispEdges" width="4px" x="8px" y="20px" /><rect fill="rgb(0,0,0)" height="4px" shape-rendering="crispEdges" width="4px" x="8px" y="24px" /></svg>