<?xml version="1.0" encoding="utf-8" ?>
<svg baseProfile="full" height="192px" version="1.1" width="256px" xmlns="http://www.w3.org/2000/svg" xmlns:ev="http://www.w3.org/2001/xml-events" xmlns:xlink="http://www.w3.org/1999/xlink"><defs /><rect fill="rgb(255,255,255)" height="4px" shape-rendering="crispEdges" width="4px" x="0px" y="52px" /><rect fill="rgb(255,255,255)" height="4px" shape-rendering="crispEdges" width="4px" x="0px" y="84px" /><rect fill="rgb(255,255,255)" height="4px" shape-rendering="crispEdges" width="4px" x="0px" y="120px" /><rect fill="rgb(255,255,255)" height="4px" shape-rendering="crispEdges" width="4px" x="0px" y="188px" /><rect fill="rgb(255,255,255)" height="4px" shape-rendering="crispEdges" width="4px" x="4px" y="40px" /><rect fill="rgb(255,255,255)" height="4px" shape-rendering="crispEdges" width="4px" x="4px" y="56px" /><rect fill="rgb(255,255,255)" height="4px" shape-rendering="crispEdges" width="4px" x="4px" y="72px" /><rect fill="rgb(255,255,255)" height="4px" shape-rendering="crispEdges" width="4px" x="4px" y="88px" /><rect fill="rgb(255,255,255)" height="4px" shape-rendering="crispEdges" width="4px" x="4px" y="104px" /><rect fill="rgb(255,255,255)" height="4px" shape-rendering="crispEdges" width="4px" x="4px" y="112px" /><rect fill="rgb(255,255,255)" height="4px" shape-rendering="crispEdges" width="4px" x="4px" y="136px" /><rect fill="rgb(255,255,255)" height="4px" shape-rendering="crispEdges" width="4px" x="4px" y="172px" /><rect fill="rgb(255,255,255)" height="4px" shape-rendering="crispEdges" width="4px" x="4px" y="180px" /><rect fill="rgb(255,255,255)" height="4px" shape-rendering="crispEdges" width="4px" x="8px" y="52px" /><rect fill="rgb(255,255,255)" height="4px" shape-rendering="crispEdges" width="4px" x="8px" y="80px" /><rect fill="rgb(255,255,255)" height="4px" shape-rendering="crispEdges" width="4px" x="8px" y="88px" /><rect fill="rgb(255,255,255)" height="4px" shape-rendering="crispEdges" width="4px" x="8px" y="108px" /><rect fill="rgb(255,255,255)" height="4px" shape-rendering="crispEdges" width="4px" x="8px" y="140px" /><rect fill="rgb(255,255,255)" height="4px" shape-rendering="crispEdges" width="4px" x="8px" y="176px" /><rect fill="rgb(255,255,255)" height="4px" shape-rendering="crispEdges" width="4px" x="16px" y="44px" /><rect fill="rgb(255,255,255)" height="4px" shape-rendering="crispEdges" width="4px" x="16px" y="56px" /><rect fill="rgb(255,255,255)" height="4px" shape-rendering="crispEdges" width="4px" x="16px" y="88px" /><rect fill="rgb(255,255,255)" height="4px" shape-rendering="crispEdges" width="4px" x="16px" y="116px" /><rect fill="rgb(255,255,255)" height="4px" shape-rendering="crispEdges" width="4px" x="16px" y="148px" /><rect fill="rgb(255,255,255)" height="4px" shape-rendering="crispEdges" width="4px" x="16px" y="176px" /><rect fill="rgb(255,255,255)" height="4px" shape-rendering="crispEdges" width="4px" x="20px" y="16px" /><rect fill="rgb(255,255,255)" height="4px" shape-rendering="crispEdges" width="4px" x="20px" y="24px" /><rect fill="rgb(255,255,255)" height="4px" shape-rendering="crispEdges" width="4px" x="20px" y="56px" /><rect fill="rgb(255,255,255)" height="4px" shape-rendering="crispEdges" width="4px" x="20px" y="72px" /><rect fill="rgb(255,255,255)" height="4px" shape-rendering="crispEdges" width="4px" x="20px" y="80px" /><rect fill="rgb(255,255,255)" height="4px" shape-rendering="crispEdges" width="4px" x="20px" y="104px" /><rect fill="rgb(255,255,255)" height="4px" shape-rendering="crispEdges" width="4px" x="20px" y="120px" /><rect fill="rgb(255,255,255)" height="4px" shape-rendering="crispEdges" width="4px" x="20px" y="140px" /><rect fill="rgb(255,255,255)" height="4px" shape-rendering="crispEdges" width="4px" x="20px" y="152px" /><rect fill="rgb(255,255,255)" height="4px" shape-rendering="crispEdges" width="4px" x="20px" y="172px" /><rect fill="rgb(255,255,255)" height="4px" shape-rendering="crispEdges" width="4px" x="20px" y="180px" /><rect fill="rgb(255,255,255)" height="4px" shape-rendering="crispEdges" width="4px" x="24px" y="12px" /><rect fill="rgb(255,255,255)" height="4px" shape-rendering="crispEdges" width="4px" x="24px" y="56px" /><rect fill="rgb(255,255,255)" height="4px" shape-rendering="crispEdges" width="4px" x="24px" y="88px" /><rect fill="rgb(255,255,255)" height="4px" shape-rendering="crispEdges" width="4px" x="24px" y="112px" /><rect fill="rgb(255,255,255)" height="4px" shape-rendering="crispEdges" width="4px" x="24px" y="120px" /><rect fill="rgb(255,255,255)" height="4px" shape-rendering="crispEdges" width="4px" x="24px" y="152px" /><rect fill="rgb(255,255,255)" height="4px" shape-rendering="crispEdges" width="4px" x="24px" y="188px" /><rect fill="rgb(255,255,255)" height="4px" shape-rendering="crispEdges" width="4px" x="32px" y="12px" /><rect fill="rgb(255,255,255)" height="4px" shape-rendering="crispEdges" width="4px" x="32px" y="40px" /><rect fill="rgb(255,255,255)" height="4px" shape-rendering="crispEdges" width="4px" x="32px" y="56px" /><rect fill="rgb(255,255,255)" height="4px" shape-rendering="crispEdges" width="4px" x="32px" y="88px" /><rect fill="rgb(255,255,255)" height="4px" shape-rendering="crispEdges" width="4px" x="32px" y="120px" /><rect fill="rgb(255,255,255)" height="4px" shape-rendering="crispEdges" width="4px" x="32px" y="152px" /><rect fill="rgb(255,255,255)" height="4px" shape-rendering="crispEdges" width="4px" x="32px" y="184px" /><rect fill="rgb(255,255,255)" height="4px" shape-rendering="crispEdges" width="4px" x="36px" y="40px" /><rect fill="rgb(255,255,255)" height="4px" shape-rendering="crispEdges" width="4px" x="36px" y="48px" /><rect fill="rgb(255,255,255)" height="4px" shape-rendering="crispEdges" width="4px" x="36px" y="56px" /><rect fill="rgb(255,255,255)" height="4px" shape-rendering="crispEdges" width="4px" x="36px" y="72px" /><rect fill="rgb(255,255,255)" height="4px" shape-rendering="crispEdges" width="4px" x="36px" y="80px" /><rect fill="rgb(255,255,255)" height="4px" shape-rendering="crispEdges" width="4px" x="36px" y="88px" /><rect fill="rgb(255,255,255)" height="4px" shape-rendering="crispEdges" width="4px" x="36px" y="104px" /><rect fill="rgb(255,255,255)" height="4px" shape-rendering="crispEdges" width="4px" x="36px" y="112px" /><rect fill="rgb(255,255,255)" height="4px" shape-rendering="crispEdges" width="4px" x="36px" y="140px" /><rect fill="rgb(255,255,255)" height="4px" shape-rendering="crispEdges" width="4px" x="36px" y="152px" /><rect fill="rgb(255,255,255)" height="4px" shape-rendering="crispEdges" width="4px" x="36px" y="172px" /><rect fill="rgb(255,255,255)" height="4px" shape-rendering="crispEdges" width="4px" x="40px" y="12px" /><rect fill="rgb(255,255,255)" height="4px" shape-rendering="crispEdges" width="4px" x="40px" y="44px" /><rect fill="rgb(255,255,255)" height="4px" shape-rendering="crispEdges" width="4px" x="40px" y="56px" /><rect fill="rgb(255,255,255)" height="4px" shape-rendering="crispEdges" width="4px" x="40px" y="76px" /><rect fill="rgb(255,255,255)" height="4px" shape-rendering="crispEdges" width="4px" x="40px" y="84px" /><rect fill="rgb(255,255,255)" height="4px" shape-rendering="crispEdges" width="4px" x="40px" y="108px" /><rect fill="rgb(255,255,255)" height="4px" shape-rendering="crispEdges" width="4px" x="40px" y="120px" /><rect fill="rgb(255,255,255)" height="4px" shape-rendering="crispEdges" width="4px" x="40px" y="148px" /><rect fill="rgb(255,255,255)" height="4px" shape-rendering="crispEdges" width="4px" x="40px" y="172px" /><rect fill="rgb(255,255,255)" height="4px" shape-rendering="crispEdges" width="4px" x="48px" y="24px" /><rect fill="rgb(255,255,255)" height="4px" shape-rendering="crispEdges" width="4px" x="48px" y="40px" /><rect fill="rgb(255,255,255)" height="4px" shape-rendering="crispEdges" width="4px" x="48px" y="56px" /><rect fill="rgb(255,255,255)" height="4px" shape-rendering="crispEdges" width="4px" x="48px" y="84px" /><rect fill="rgb(255,255,255)" height="4px" shape-rendering="crispEdges" width="4px" x="48px" y="112px" /><rect fill="rgb(255,255,255)" height="4px" shape-rendering="crispEdges" width="4px" x="48px" y="120px" /><rect fill="rgb(255,255,255)" height="4px" shape-rendering="crispEdges" width="4px" x="48px" y="148px" /><rect fill="rgb(255,255,255)" height="4px" shape-rendering="crispEdges" width="4px" x="48px" y="176px" /><rect fill="rgb(255,255,255)" height="4px" shape-rendering="crispEdges" width="4px" x="48px" y="184px" /><rect fill="rgb(255,255,255)" height="4px" shape-rendering="crispEdges" width="4px" x="52px" y="12px" /><rect fill="rgb(255,255,255)" height="4px" shape-rendering="crispEdges" width="4px" x="52px" y="20px" /><rect fill="rgb(255,255,255)" height="4px" shape-rendering="crispEdges" width="4px" x="52px" y="40px" /><rect fill="rgb(255,255,255)" height="4px" shape-rendering="crispEdges" width="4px" x="52px" y="48px" /><rect fill="rgb(255,255,255)" height="4px" shape-rendering="crispEdges" width="4px" x="52px" y="56px" /><rect fill="rgb(255,255,255)" height="4px" shape-rendering="crispEdges" width="4px" x="52px" y="72px" /><rect fill="rgb(255,255,255)" height="4px" shape-rendering="crispEdges" width="4px" x="52px" y="88px" /><rect fill="rgb(255,255,255)" height="4px" shape-rendering="crispEdges" width="4px" x="52px" y="104px" /><rect fill="rgb(255,255,255)" height="4px" shape-rendering="crispEdges" width="4px" x="52px" y="112px" /><rect fill="rgb(255,255,255)" height="4px" shape-rendering="crispEdges" width="4px" x="52px" y="120px" /><rect fill="rgb(255,255,255)" height="4px" shape-rendering="crispEdges" width="4px" x="52px" y="140px" /><rect fill="rgb(255,255,255)" height="4px" shape-rendering="crispEdges" width="4px" x="52px" y="152px" /><rect fill="rgb(255,255,255)" height="4px" shape-rendering="crispEdges" width="4px" x="52px" y="172px" /><rect fill="rgb(255,255,255)" height="4px" shape-rendering="crispEdges" width="4px" x="52px" y="184px" /><rect fill="rgb(255,255,255)" height="4px" shape-rendering="crispEdges" width="4px" x="56px" y="24px" /><rect fill="rgb(255,255,255)" height="4px" shape-rendering="crispEdges" width="4px" x="56px" y="44px" /><rect fill="rgb(255,255,255)" height="4px" shape-rendering="crispEdges" width="4px" x="56px" y="52px" /><rect fill="rgb(255,255,255)" height="4px" shape-rendering="crispEdges" width="4px" x="56px" y="72px" /><rect fill="rgb(255,255,255)" height="4px" shape-rendering="crispEdges" width="4px" x="56px" y="88px" /><rect fill="rgb(255,255,255)" height="4px" shape-rendering="crispEdges" width="4px" x="56px" y="104px" /><rect fill="rgb(255,255,255)" height="4px" shape-rendering="crispEdges" width="4px" x="56px" y="116px" /><rect fill="rgb(255,255,255)" height="4px" shape-rendering="crispEdges" width="4px" x="56px" y="140px" /><rect fill="rgb(255,255,255)" height="4px" shape-rendering="crispEdges" width="4px" x="56px" y="152px" /><rect fill="rgb(255,255,255)" height="4px" shape-rendering="crispEdges" width="4px" x="56px" y="172px" /><rect fill="rgb(255,255,255)" height="4px" shape-rendering="crispEdges" width="4px" x="56px" y="180px" /><rect fill="rgb(255,255,255)" height="4px" shape-rendering="crispEdges" width="4px" x="64px" y="12px" /><rect fill="rgb(255,255,255)" height="4px" shape-rendering="crispEdges" width="4px" x="64px" y="24px" /><rect fill="rgb(255,255,255)" height="4px" shape-rendering="crispEdges" width="4px" x="64px" y="48px" /><rect fill="rgb(255,255,255)" height="4px" shape-rendering="crispEdges" width="4px" x="64px" y="88px" /><rect fill="rgb(255,255,255)" height="4px" shape-rendering="crispEdges" width="4px" x="64px" y="104px" /><rect fill="rgb(255,255,255)" height="4px" shape-rendering="crispEdges" width="4px" x="64px" y="148px" /><rect fill="rgb(255,255,255)" height="4px" shape-rendering="crispEdges" width="4px" x="64px" y="176px" /><rect fill="rgb(255,255,255)" height="4px" shape-rendering="crispEdges" width="4px" x="68px" y="8px" /><rect fill="rgb(255,255,255)" height="4px" shape-rendering="crispEdges" width="4px" x="68px" y="16px" /><rect fill="rgb(255,255,255)" height="4px" shape-rendering="crispEdges" width="4px" x="68px" y="28px" /><rect fill="rgb(255,255,255)" height="4px" shape-rendering="crispEdges" width="4px" x="68px" y="48px" /><rect fill="rgb(255,255,255)" height="4px" shape-rendering="crispEdges" width="4px" x="68px" y="72px" /><rect fill="rgb(255,255,255)" height="4px" shape-rendering="crispEdges" width="4px" x="68px" y="88px" /><rect fill="rgb(255,255,255)" height="4px" shape-rendering="crispEdges" width="4px" x="68px" y="120px" /><rect fill="rgb(255,255,255)" height="4px" shape-rendering="crispEdges" width="4px" x="68px" y="140px" /><rect fill="rgb(255,255,255)" height="4px" shape-rendering="crispEdges" width="4px" x="68px" y="152px" /><rect fill="rgb(255,255,255)" height="4px" shape-rendering="crispEdges" width="4px" x="68px" y="184px" /><rect fill="rgb(255,255,255)" height="4px" shape-rendering="crispEdges" width="4px" x="72px" y="8px" /><rect fill="rgb(255,255,255)" height="4px" shape-rendering="crispEdges" width="4px" x="72px" y="20px" /><rect fill="rgb(255,255,255)" height="4px" shape-rendering="crispEdges" width="4px" x="72px" y="56px" /><rect fill="rgb(255,255,255)" height="4px" shape-rendering="crispEdges" width="4px" x="72px" y="84px" /><rect fill="rgb(255,255,255)" height="4px" shape-rendering="crispEdges" width="4px" x="72px" y="104px" /><rect fill="rgb(255,255,255)" height="4px" shape-rendering="crispEdges" width="4px" x="72px" y="152px" /><rect fill="rgb(255,255,255)" height="4px" shape-rendering="crispEdges" width="4px" x="72px" y="176px" /><rect fill="rgb(255,255,255)" height="4px" shape-rendering="crispEdges" width="4px" x="72px" y="184px" /><rect fill="rgb(255,255,255)" height="4px" shape-rendering="crispEdges" width="4px" x="80px" y="8px" /><rect fill="rgb(255,255,255)" height="4px" shape-rendering="crispEdges" width="4px" x="80px" y="20px" /><rect fill="rgb(255,255,255)" height="4px" shape-rendering="crispEdges" width="4px" x="80px" y="48px" /><rect fill="rgb(255,255,255)" height="4px" shape-rendering="crispEdges" width="4px" x="80px" y="56px" /><rect fill="rgb(255,255,255)" height="4px" shape-rendering="crispEdges" width="4px" x="80px" y="88px" /><rect fill="rgb(255,255,255)" height="4px" shape-rendering="crispEdges" width="4px" x="80px" y="120px" /><rect fill="rgb(255,255,255)" height="4px" shape-rendering="crispEdges" width="4px" x="80px" y="148px" /><rect fill="rgb(255,255,255)" height="4px" shape-rendering="crispEdges" width="4px" x="80px" y="180px" /><rect fill="rgb(255,255,255)" height="4px" shape-rendering="crispEdges" width="4px" x="84px" y="16px" /><rect fill="rgb(255,255,255)" height="4px" shape-rendering="crispEdges" width="4px" x="84px" y="40px" /><rect fill="rgb(255,255,255)" height="4px" shape-rendering="crispEdges" width="4px" x="84px" y="48px" /><rect fill="rgb(255,255,255)" height="4px" shape-rendering="crispEdges" width="4px" x="84px" y="56px" /><rect fill="rgb(255,255,255)" height="4px" shape-rendering="crispEdges" width="4px" x="84px" y="72px" /><rect fill="rgb(255,255,255)" height="4px" shape-rendering="crispEdges" width="4px" x="84px" y="80px" /><rect fill="rgb(255,255,255)" height="4px" shape-rendering="crispEdges" width="4px" x="84px" y="88px" /><rect fill="rgb(255,255,255)" height="4px" shape-rendering="crispEdges" width="4px" x="84px" y="120px" /><rect fill="rgb(255,255,255)" height="4px" shape-rendering="crispEdges" width="4px" x="84px" y="140px" /><rect fill="rgb(255,255,255)" height="4px" shape-rendering="crispEdges" width="4px" x="84px" y="152px" /><rect fill="rgb(255,255,255)" height="4px" shape-rendering="crispEdges" width="4px" x="84px" y="184px" /><rect fill="rgb(255,255,255)" height="4px" shape-rendering="crispEdges" width="4px" x="88px" y="12px" /><rect fill="rgb(255,255,255)" height="4px" shape-rendering="crispEdges" width="4px" x="88px" y="24px" /><rect fill="rgb(255,255,255)" height="4px" shape-rendering="crispEdges" width="4px" x="88px" y="40px" /><rect fill="rgb(255,255,255)" height="4px" shape-rendering="crispEdges" width="4px" x="88px" y="56px" /><rect fill="rgb(255,255,255)" height="4px" shape-rendering="crispEdges" width="4px" x="88px" y="72px" /><rect fill="rgb(255,255,255)" height="4px" shape-rendering="crispEdges" width="4px" x="88px" y="80px" /><rect fill="rgb(255,255,255)" height="4px" shape-rendering="crispEdges" width="4px" x="88px" y="88px" /><rect fill="rgb(255,255,255)" height="4px" shape-rendering="crispEdges" width="4px" x="88px" y="120px" /><rect fill="rgb(255,255,255)" height="4px" shape-rendering="crispEdges" width="4px" x="88px" y="144px" /><rect fill="rgb(255,255,255)" height="4px" shape-rendering="crispEdges" width="4px" x="88px" y="152px" /><rect fill="rgb(255,255,255)" height="4px" shape-rendering="crispEdges" width="4px" x="88px" y="184px" /><rect fill="rgb(255,255,255)" height="4px" shape-rendering="crispEdges" width="4px" x="96px" y="24px" /><rect fill="rgb(255,255,255)" height="4px" shape-rendering="crispEdges" width="4px" x="96px" y="56px" /><rect fill="rgb(255,255,255)" height="4px" shape-rendering="crispEdges" width="4px" x="96px" y="88px" /><rect fill="rgb(255,255,255)" height="4px" shape-rendering="crispEdges" width="4px" x="96px" y="116px" /><rect fill="rgb(255,255,255)" height="4px" shape-rendering="crispEdges" width="4px" x="96px" y="144px" /><rect fill="rgb(255,255,255)" height="4px" shape-rendering="crispEdges" width="4px" x="96px" y="180px" /><rect fill="rgb(255,255,255)" height="4px" shape-rendering="crispEdges" width="4px" x="100px" y="16px" /><rect fill="rgb(255,255,255)" height="4px" shape-rendering="crispEdges" width="4px" x="100px" y="24px" /><rect fill="rgb(255,255,255)" height="4px" shape-rendering="crispEdges" width="4px" x="100px" y="40px" /><rect fill="rgb(255,255,255)" height="4px" shape-rendering="crispEdges" width="4px" x="100px" y="48px" /><rect fill="rgb(255,255,255)" height="4px" shape-rendering="crispEdges" width="4px" x="100px" y="56px" /><rect fill="rgb(255,255,255)" height="4px" shape-rendering="crispEdges" width="4px" x="100px" y="72px" /><rect fill="rgb(255,255,255)" height="4px" shape-rendering="crispEdges" width="4px" x="100px" y="80px" /><rect fill="rgb(255,255,255)" height="4px" shape-rendering="crispEdges" width="4px" x="100px" y="120px" /><rect fill="rgb(255,255,255)" height="4px" shape-rendering="crispEdges" width="4px" x="100px" y="152px" /><rect fill="rgb(255,255,255)" height="4px" shape-rendering="crispEdges" width="4px" x="100px" y="184px" /><rect fill="rgb(255,255,255)" height="4px" shape-rendering="crispEdges" width="4px" x="104px" y="12px" /><rect fill="rgb(255,255,255)" height="4px" shape-rendering="crispEdges" width="4px" x="104px" y="20px" /><rect fill="rgb(255,255,255)" height="4px" shape-rendering="crispEdges" width="4px" x="104px" y="28px" /><rect fill="rgb(255,255,255)" height="4px" shape-rendering="crispEdges" width="4px" x="104px" y="40px" /><rect fill="rgb(255,255,255)" height="4px" shape-rendering="crispEdges" width="4px" x="104px" y="56px" /><rect fill="rgb(255,255,255)" height="4px" shape-rendering="crispEdges" width="4px" x="104px" y="72px" /><rect fill="rgb(255,255,255)" height="4px" shape-rendering="crispEdges" width="4px" x="104px" y="80px" /><rect fill="rgb(255,255,255)" height="4px" shape-rendering="crispEdges" width="4px" x="104px" y="116px" /><rect fill="rgb(255,255,255)" height="4px" shape-rendering="crispEdges" width="4px" x="104px" y="136px" /><rect fill="rgb(255,255,255)" height="4px" shape-rendering="crispEdges" width="4px" x="104px" y="144px" /><rect fill="rgb(255,255,255)" height="4px" shape-rendering="crispEdges" width="4px" x="104px" y="180px" /><rect fill="rgb(255,255,255)" height="4px" shape-rendering="crispEdges" width="4px" x="112px" y="40px" /><rect fill="rgb(255,255,255)" height="4px" shape-rendering="crispEdges" width="4px" x="112px" y="56px" /><rect fill="rgb(255,255,255)" height="4px" shape-rendering="crispEdges" width="4px" x="112px" y="84px" /><rect fill="rgb(255,255,255)" height="4px" shape-rendering="crispEdges" width="4px" x="112px" y="120px" /><rect fill="rgb(255,255,255)" height="4px" shape-rendering="crispEdges" width="4px" x="112px" y="148px" /><rect fill="rgb(255,255,255)" height="4px" shape-rendering="crispEdges" width="4px" x="112px" y="156px" /><rect fill="rgb(255,255,255)" height="4px" shape-rendering="crispEdges" width="4px" x="112px" y="184px" /><rect fill="rgb(255,255,255)" height="4px" shape-rendering="crispEdges" width="4px" x="116px" y="12px" /><rect fill="rgb(255,255,255)" height="4px" shape-rendering="crispEdges" width="4px" x="116px" y="40px" /><rect fill="rgb(255,255,255)" height="4px" shape-rendering="crispEdges" width="4px" x="116px" y="48px" /><rect fill="rgb(255,255,255)" height="4px" shape-rendering="crispEdges" width="4px" x="116px" y="72px" /><rect fill="rgb(255,255,255)" height="4px" shape-rendering="crispEdges" width="4px" x="116px" y="88px" /><rect fill="rgb(255,255,255)" height="4px" shape-rendering="crispEdges" width="4px" x="116px" y="120px" /><rect fill="rgb(255,255,255)" height="4px" shape-rendering="crispEdges" width="4px" x="116px" y="140px" /><rect fill="rgb(255,255,255)" height="4px" shape-rendering="crispEdges" width="4px" x="116px" y="148px" /><rect fill="rgb(255,255,255)" height="4px" shape-rendering="crispEdges" width="4px" x="116px" y="156px" /><rect fill="rgb(255,255,255)" height="4px" shape-rendering="crispEdges" width="4px" x="116px" y="184px" /><rect fill="rgb(255,255,255)" height="4px" shape-rendering="crispEdges" width="4px" x="120px" y="44px" /><rect fill="rgb(255,255,255)" height="4px" shape-rendering="crispEdges" width="4px" x="120px" y="72px" /><rect fill="rgb(255,255,255)" height="4px" shape-rendering="crispEdges" width="4px" x="120px" y="88px" /><rect fill="rgb(255,255,255)" height="4px" shape-rendering="crispEdges" width="4px" x="120px" y="120px" /><rect fill="rgb(255,255,255)" height="4px" shape-rendering="crispEdges" width="4px" x="120px" y="152px" /><rect fill="rgb(255,255,255)" height="4px" shape-rendering="crispEdges" width="4px" x="120px" y="184px" /><rect fill="rgb(255,255,255)" height="4px" shape-rendering="crispEdges" width="4px" x="128px" y="56px" /><rect fill="rgb(255,255,255)" height="4px" shape-rendering="crispEdges" width="4px" x="128px" y="88px" /><rect fill="rgb(255,255,255)" height="4px" shape-rendering="crispEdges" width="4px" x="128px" y="108px" /><rect fill="rgb(255,255,255)" height="4px" shape-rendering="crispEdges" width="4px" x="128px" y="120px" /><rect fill="rgb(255,255,255)" height="4px" shape-rendering="crispEdges" width="4px" x="128px" y="152px" /><rect fill="rgb(255,255,255)" height="4px" shape-rendering="crispEdges" width="4px" x="128px" y="172px" /><rect fill="rgb(255,255,255)" height="4px" shape-rendering="crispEdges" width="4px" x="128px" y="184px" /><rect fill="rgb(255,255,255)" height="4px" shape-rendering="crispEdges" width="4px" x="132px" y="20px" /><rect fill="rgb(255,255,255)" height="4px" shape-rendering="crispEdges" width="4px" x="132px" y="40px" /><rect fill="rgb(255,255,255)" height="4px" shape-rendering="crispEdges" width="4px" x="132px" y="48px" /><rect fill="rgb(255,255,255)" height="4px" shape-rendering="crispEdges" width="4px" x="132px" y="56px" /><rect fill="rgb(255,255,255)" height="4px" shape-rendering="crispEdges" width="4px" x="132px" y="80px" /><rect fill="rgb(255,255,255)" height="4px" shape-rendering="crispEdges" width="4px" x="132px" y="112px" /><rect fill="rgb(255,255,255)" height="4px" shape-rendering="crispEdges" width="4px" x="132px" y="144px" /><rect fill="rgb(255,255,255)" height="4px" shape-rendering="crispEdges" width="4px" x="132px" y="180px" /><rect fill="rgb(255,255,255)" height="4px" shape-rendering="crispEdges" width="4px" x="136px" y="8px" /><rect fill="rgb(255,255,255)" height="4px" shape-rendering="crispEdges" width="4px" x="136px" y="24px" /><rect fill="rgb(255,255,255)" height="4px" shape-rendering="crispEdges" width="4px" x="136px" y="56px" /><rect fill="rgb(255,255,255)" height="4px" shape-rendering="crispEdges" width="4px" x="136px" y="88px" /><rect fill="rgb(255,255,255)" height="4px" shape-rendering="crispEdges" width="4px" x="136px" y="108px" /><rect fill="rgb(255,255,255)" height="4px" shape-rendering="crispEdges" width="4px" x="136px" y="120px" /><rect fill="rgb(255,255,255)" height="4px" shape-rendering="crispEdges" width="4px" x="136px" y="152px" /><rect fill="rgb(255,255,255)" height="4px" shape-rendering="crispEdges" width="4px" x="136px" y="172px" /><rect fill="rgb(255,255,255)" height="4px" shape-rendering="crispEdges" width="4px" x="136px" y="184px" /><rect fill="rgb(255,255,255)" height="4px" shape-rendering="crispEdges" width="4px" x="144px" y="48px" /><rect fill="rgb(255,255,255)" height="4px" shape-rendering="crispEdges" width="4px" x="144px" y="56px" /><rect fill="rgb(255,255,255)" height="4px" shape-rendering="crispEdges" width="4px" x="144px" y="72px" /><rect fill="rgb(255,255,255)" height="4px" shape-rendering="crispEdges" width="4px" x="144px" y="88px" /><rect fill="rgb(255,255,255)" height="4px" shape-rendering="crispEdges" width="4px" x="144px" y="108px" /><rect fill="rgb(255,255,255)" height="4px" shape-rendering="crispEdges" width="4px" x="144px" y="120px" /><rect fill="rgb(255,255,255)" height="4px" shape-rendering="crispEdges" width="4px" x="144px" y="176px" /><rect fill="rgb(255,255,255)" height="4px" shape-rendering="crispEdges" width="4px" x="144px" y="184px" /><rect fill="rgb(255,255,255)" height="4px" shape-rendering="crispEdges" width="4px" x="148px" y="8px" /><rect fill="rgb(255,255,255)" height="4px" shape-rendering="crispEdges" width="4px" x="148px" y="24px" /><rect fill="rgb(255,255,255)" height="4px" shape-rendering="crispEdges" width="4px" x="148px" y="40px" /><rect fill="rgb(255,255,255)" height="4px" shape-rendering="crispEdges" width="4px" x="148px" y="48px" /><rect fill="rgb(255,255,255)" height="4px" shape-rendering="crispEdges" width="4px" x="148px" y="56px" /><rect fill="rgb(255,255,255)" height="4px" shape-rendering="crispEdges" width="4px" x="148px" y="88px" /><rect fill="rgb(255,255,255)" height="4px" shape-rendering="crispEdges" width="4px" x="148px" y="112px" /><rect fill="rgb(255,255,255)" height="4px" shape-rendering="crispEdges" width="4px" x="148px" y="120px" /><rect fill="rgb(255,255,255)" height="4px" shape-rendering="crispEdges" width="4px" x="148px" y="136px" /><rect fill="rgb(255,255,255)" height="4px" shape-rendering="crispEdges" width="4px" x="148px" y="152px" /><rect fill="rgb(255,255,255)" height="4px" shape-rendering="crispEdges" width="4px" x="148px" y="176px" /><rect fill="rgb(255,255,255)" height="4px" shape-rendering="crispEdges" width="4px" x="148px" y="184px" /><rect fill="rgb(255,255,255)" height="4px" shape-rendering="crispEdges" width="4px" x="152px" y="20px" /><rect fill="rgb(255,255,255)" height="4px" shape-rendering="crispEdges" width="4px" x="152px" y="52px" /><rect fill="rgb(255,255,255)" height="4px" shape-rendering="crispEdges" width="4px" x="152px" y="72px" /><rect fill="rgb(255,255,255)" height="4px" shape-rendering="crispEdges" width="4px" x="152px" y="88px" /><rect fill="rgb(255,255,255)" height="4px" shape-rendering="crispEdges" width="4px" x="152px" y="116px" /><rect fill="rgb(255,255,255)" height="4px" shape-rendering="crispEdges" width="4px" x="152px" y="180px" /><rect fill="rgb(255,255,255)" height="4px" shape-rendering="crispEdges" width="4px" x="160px" y="8px" /><rect fill="rgb(255,255,255)" height="4px" shape-rendering="crispEdges" width="4px" x="160px" y="16px" /><rect fill="rgb(255,255,255)" height="4px" shape-rendering="crispEdges" width="4px" x="160px" y="88px" /><rect fill="rgb(255,255,255)" height="4px" shape-rendering="crispEdges" width="4px" x="160px" y="104px" /><rect fill="rgb(255,255,255)" height="4px" shape-rendering="crispEdges" width="4px" x="160px" y="120px" /><rect fill="rgb(255,255,255)" height="4px" shape-rendering="crispEdges" width="4px" x="160px" y="152px" /><rect fill="rgb(255,255,255)" height="4px" shape-rendering="crispEdges" width="4px" x="160px" y="172px" /><rect fill="rgb(255,255,255)" height="4px" shape-rendering="crispEdges" width="4px" x="160px" y="184px" /><rect fill="rgb(255,255,255)" height="4px" shape-rendering="crispEdges" width="4px" x="164px" y="12px" /><rect fill="rgb(255,255,255)" height="4px" shape-rendering="crispEdges" width="4px" x="164px" y="44px" /><rect fill="rgb(255,255,255)" height="4px" shape-rendering="crispEdges" width="4px" x="164px" y="56px" /><rect fill="rgb(255,255,255)" height="4px" shape-rendering="crispEdges" width="4px" x="164px" y="72px" /><rect fill="rgb(255,255,255)" height="4px" shape-rendering="crispEdges" width="4px" x="164px" y="88px" /><rect fill="rgb(255,255,255)" height="4px" shape-rendering="crispEdges" width="4px" x="164px" y="104px" /><rect fill="rgb(255,255,255)" height="4px" shape-rendering="crispEdges" width="4px" x="164px" y="112px" /><rect fill="rgb(255,255,255)" height="4px" shape-rendering="crispEdges" width="4px" x="164px" y="120px" /><rect fill="rgb(255,255,255)" height="4px" shape-rendering="crispEdges" width="4px" x="164px" y="156px" /><rect fill="rgb(255,255,255)" height="4px" shape-rendering="crispEdges" width="4px" x="164px" y="176px" /><rect fill="rgb(255,255,255)" height="4px" shape-rendering="crispEdges" width="4px" x="164px" y="184px" /><rect fill="rgb(255,255,255)" height="4px" shape-rendering="crispEdges" width="4px" x="168px" y="8px" /><rect fill="rgb(255,255,255)" height="4px" shape-rendering="crispEdges" width="4px" x="168px" y="16px" /><rect fill="rgb(255,255,255)" height="4px" shape-rendering="crispEdges" width="4px" x="168px" y="84px" /><rect fill="rgb(255,255,255)" height="4px" shape-rendering="crispEdges" width="4px" x="168px" y="108px" /><rect fill="rgb(255,255,255)" height="4px" shape-rendering="crispEdges" width="4px" x="168px" y="120px" /><rect fill="rgb(255,255,255)" height="4px" shape-rendering="crispEdges" width="4px" x="168px" y="136px" /><rect fill="rgb(255,255,255)" height="4px" shape-rendering="crispEdges" width="4px" x="168px" y="152px" /><rect fill="rgb(255,255,255)" height="4px" shape-rendering="crispEdges" width="4px" x="168px" y="172px" /><rect fill="rgb(255,255,255)" height="4px" shape-rendering="crispEdges" width="4px" x="168px" y="184px" /><rect fill="rgb(255,255,255)" height="4px" shape-rendering="crispEdges" width="4px" x="176px" y="16px" /><rect fill="rgb(255,255,255)" height="4px" shape-rendering="crispEdges" width="4px" x="176px" y="88px" /><rect fill="rgb(255,255,255)" height="4px" shape-rendering="crispEdges" width="4px" x="176px" y="120px" /><rect fill="rgb(255,255,255)" height="4px" shape-rendering="crispEdges" width="4px" x="176px" y="152px" /><rect fill="rgb(255,255,255)" height="4px" shape-rendering="crispEdges" width="4px" x="176px" y="176px" /><rect fill="rgb(255,255,255)" height="4px" shape-rendering="crispEdges" width="4px" x="180px" y="20px" /><rect fill="rgb(255,255,255)" height="4px" shape-rendering="crispEdges" width="4px" x="180px" y="60px" /><rect fill="rgb(255,255,255)" height="4px" shape-rendering="crispEdges" width="4px" x="180px" y="80px" /><rect fill="rgb(255,255,255)" height="4px" shape-rendering="crispEdges" width="4px" x="180px" y="104px" /><rect fill="rgb(255,255,255)" height="4px" shape-rendering="crispEdges" width="4px" x="180px" y="120px" /><rect fill="rgb(255,255,255)" height="4px" shape-rendering="crispEdges" width="4px" x="180px" y="148px" /><rect fill="rgb(255,255,255)" height="4px" shape-rendering="crispEdges" width="4px" x="180px" y="184px" /><rect fill="rgb(255,255,255)" height="4px" shape-rendering="crispEdges" width="4px" x="184px" y="16px" /><rect fill="rgb(255,255,255)" height="4px" shape-rendering="crispEdges" width="4px" x="184px" y="44px" /><rect fill="rgb(255,255,255)" height="4px" shape-rendering="crispEdges" width="4px" x="184px" y="56px" /><rect fill="rgb(255,255,255)" height="4px" shape-rendering="crispEdges" width="4px" x="184px" y="76px" /><rect fill="rgb(255,255,255)" height="4px" shape-rendering="crispEdges" width="4px" x="184px" y="88px" /><rect fill="rgb(255,255,255)" height="4px" shape-rendering="crispEdges" width="4px" x="184px" y="144px" /><rect fill="rgb(255,255,255)" height="4px" shape-rendering="crispEdges" width="4px" x="184px" y="152px" /><rect fill="rgb(255,255,255)" height="4px" shape-rendering="crispEdges" width="4px" x="184px" y="168px" /><rect fill="rgb(255,255,255)" height="4px" shape-rendering="crispEdges" width="4px" x="184px" y="184px" /><rect fill="rgb(255,255,255)" height="4px" shape-rendering="crispEdges" width="4px" x="192px" y="24px" /><rect fill="rgb(255,255,255)" height="4px" shape-rendering="crispEdges" width="4px" x="192px" y="48px" /><rect fill="rgb(255,255,255)" height="4px" shape-rendering="crispEdges" width="4px" x="192px" y="88px" /><rect fill="rgb(255,255,255)" height="4px" shape-rendering="crispEdges" width="4px" x="192px" y="104px" /><rect fill="rgb(255,255,255)" height="4px" shape-rendering="crispEdges" width="4px" x="192px" y="136px" /><rect fill="rgb(255,255,255)" height="4px" shape-rendering="crispEdges" width="4px" x="196px" y="20px" /><rect fill="rgb(255,255,255)" height="4px" shape-rendering="crispEdges" width="4px" x="196px" y="44px" /><rect fill="rgb(255,255,255)" height="4px" shape-rendering="crispEdges" width="4px" x="196px" y="52px" /><rect fill="rgb(255,255,255)" height="4px" shape-rendering="crispEdges" width="4px" x="196px" y="88px" /><rect fill="rgb(255,255,255)" height="4px" shape-rendering="crispEdges" width="4px" x="196px" y="112px" /><rect fill="rgb(255,255,255)" height="4px" shape-rendering="crispEdges" width="4px" x="196px" y="152px" /><rect fill="rgb(255,255,255)" height="4px" shape-rendering="crispEdges" width="4px" x="196px" y="184px" /><rect fill="rgb(255,255,255)" height="4px" shape-rendering="crispEdges" width="4px" x="200px" y="40px" /><rect fill="rgb(255,255,255)" height="4px" shape-rendering="crispEdges" width="4px" x="200px" y="56px" /><rect fill="rgb(255,255,255)" height="4px" shape-rendering="crispEdges" width="4px" x="200px" y="88px" /><rect fill="rgb(255,255,255)" height="4px" shape-rendering="crispEdges" width="4px" x="200px" y="120px" /><rect fill="rgb(255,255,255)" height="4px" shape-rendering="crispEdges" width="4px" x="200px" y="152px" /><rect fill="rgb(255,255,255)" height="4px" shape-rendering="crispEdges" width="4px" x="208px" y="16px" /><rect fill="rgb(255,255,255)" height="4px" shape-rendering="crispEdges" width="4px" x="208px" y="44px" /><rect fill="rgb(255,255,255)" height="4px" shape-rendering="crispEdges" width="4px" x="208px" y="52px" /><rect fill="rgb(255,255,255)" height="4px" shape-rendering="crispEdges" width="4px" x="208px" y="88px" /><rect fill="rgb(255,255,255)" height="4px" shape-rendering="crispEdges" width="4px" x="208px" y="152px" /><rect fill="rgb(255,255,255)" height="4px" shape-rendering="crispEdges" width="4px" x="208px" y="168px" /><rect fill="rgb(255,255,255)" height="4px" shape-rendering="crispEdges" width="4px" x="208px" y="184px" /><rect fill="rgb(255,255,255)" height="4px" shape-rendering="crispEdges" width="4px" x="212px" y="16px" /><rect fill="rgb(255,255,255)" height="4px" shape-rendering="crispEdges" width="4px" x="212px" y="44px" /><rect fill="rgb(255,255,255)" height="4px" shape-rendering="crispEdges" width="4px" x="212px" y="52px" /><rect fill="rgb(255,255,255)" height="4px" shape-rendering="crispEdges" width="4px" x="212px" y="80px" /><rect fill="rgb(255,255,255)" height="4px" shape-rendering="crispEdges" width="4px" x="212px" y="104px" /><rect fill="rgb(255,255,255)" height="4px" shape-rendering="crispEdges" width="4px" x="212px" y="120px" /><rect fill="rgb(255,255,255)" height="4px" shape-rendering="crispEdges" width="4px" x="212px" y="148px" /><rect fill="rgb(255,255,255)" height="4px" shape-rendering="crispEdges" width="4px" x="212px" y="184px" /><rect fill="rgb(255,255,255)" height="4px" shape-rendering="crispEdges" width="4px" x="216px" y="16px" /><rect fill="rgb(255,255,255)" height="4px" shape-rendering="crispEdges" width="4px" x="216px" y="44px" /><rect fill="rgb(255,255,255)" height="4px" shape-rendering="crispEdges" width="4px" x="216px" y="52px" /><rect fill="rgb(255,255,255)" height="4px" shape-rendering="crispEdges" width="4px" x="216px" y="88px" /><rect fill="rgb(255,255,255)" height="4px" shape-rendering="crispEdges" width="4px" x="216px" y="120px" /><rect fill="rgb(255,255,255)" height="4px" shape-rendering="crispEdges" width="4px" x="216px" y="152px" /><rect fill="rgb(255,255,255)" height="4px" shape-rendering="crispEdges" width="4px" x="216px" y="176px" /><rect fill="rgb(255,255,255)" height="4px" shape-rendering="crispEdges" width="4px" x="224px" y="40px" /><rect fill="rgb(255,255,255)" height="4px" shape-rendering="crispEdges" width="4px" x="224px" y="56px" /><rect fill="rgb(255,255,255)" height="4px" shape-rendering="crispEdges" width="4px" x="224px" y="88px" /><rect fill="rgb(255,255,255)" height="4px" shape-rendering="crispEdges" width="4px" x="224px" y="108px" /><rect fill="rgb(255,255,255)" height="4px" shape-rendering="crispEdges" width="4px" x="224px" y="152px" /><rect fill="rgb(255,255,255)" height="4px" shape-rendering="crispEdges" width="4px" x="224px" y="180px" /><rect fill="rgb(255,255,255)" height="4px" shape-rendering="crispEdges" width="4px" x="228px" y="24px" /><rect fill="rgb(255,255,255)" height="4px" shape-rendering="crispEdges" width="4px" x="228px" y="44px" /><rect fill="rgb(255,255,255)" height="4px" shape-rendering="crispEdges" width="4px" x="228px" y="52px" /><rect fill="rgb(255,255,255)" height="4px" shape-rendering="crispEdges" width="4px" x="228px" y="72px" /><rect fill="rgb(255,255,255)" height="4px" shape-rendering="crispEdges" width="4px" x="228px" y="104px" /><rect fill="rgb(255,255,255)" height="4px" shape-rendering="crispEdges" width="4px" x="228px" y="140px" /><rect fill="rgb(255,255,255)" height="4px" shape-rendering="crispEdges" width="4px" x="228px" y="176px" /><rect fill="rgb(255,255,255)" height="4px" shape-rendering="crispEdges" width="4px" x="232px" y="48px" /><rect fill="rgb(255,255,255)" height="4px" shape-rendering="crispEdges" width="4px" x="232px" y="88px" /><rect fill="rgb(255,255,255)" height="4px" shape-rendering="crispEdges" width="4px" x="232px" y="108px" /><rect fill="rgb(255,255,255)" height="4px" shape-rendering="crispEdges" width="4px" x="232px" y="152px" /><rect fill="rgb(255,255,255)" height="4px" shape-rendering="crispEdges" width="4px" x="232px" y="176px" /><rect fill="rgb(255,255,255)" height="4px" shape-rendering="crispEdges" width="4px" x="240px" y="24px" /><rect fill="rgb(255,255,255)" height="4px" shape-rendering="crispEdges" width="4px" x="240px" y="40px" /><rect fill="rgb(255,255,255)" height="4px" shape-rendering="crispEdges" width="4px" x="240px" y="88px" /><rect fill="rgb(255,255,255)" height="4px" shape-rendering="crispEdges" width="4px" x="240px" y="120px" /><rect fill="rgb(255,255,255)" height="4px" shape-rendering="crispEdges" width="4px" x="240px" y="148px" /><rect fill="rgb(255,255,255)" height="4px" shape-rendering="crispEdges" width="4px" x="240px" y="184px" /><rect fill="rgb(255,255,255)" height="4px" shape-rendering="crispEdges" width="4px" x="244px" y="16px" /><rect fill="rgb(255,255,255)" height="4px" shape-rendering="crispEdges" width="4px" x="244px" y="36px" /><rect fill="rgb(255,255,255)" height="4px" shape-rendering="crispEdges" width="4px" x="244px" y="48px" /><rect fill="rgb(255,255,255)" height="4px" shape-rendering="crispEdges" width="4px" x="244px" y="56px" /><rect fill="rgb(255,255,255)" height="4px" shape-rendering="crispEdges" width="4px" x="244px" y="72px" /><rect fill="rgb(255,255,255)" height="4px" shape-rendering="crispEdges" width="4px" x="244px" y="88px" /><rect fill="rgb(255,255,255)" height="4px" shape-rendering="crispEdges" width="4px" x="244px" y="120px" /><rect fill="rgb(255,255,255)" height="4px" shape-rendering="crispEdges" width="4px" x="244px" y="140px" /><rect fill="rgb(255,255,255)" height="4px" shape-rendering="crispEdges" width="4px" x="244px" y="152px" /><rect fill="rgb(255,255,255)" height="4px" shape-rendering="crispEdges" width="4px" x="248px" y="8px" /><rect fill="rgb(255,255,255)" height="4px" shape-rendering="crispEdges" width="4px" x="248px" y="44px" /><rect fill="rgb(255,255,255)" height="4px" shape-rendering="crispEdges" width="4px" x="248px" y="84px" /><rect fill="rgb(255,255,255)" height="4px" shape-rendering="crispEdges" width="4px" x="248px" y="120px" /><rect fill="rgb(255,255,255)" height="4px" shape-rendering="crispEdges" width="4px" x="248px" y="148px" /><rect fill="rgb(255,255,255)" height="4px" shape-rendering="crispEdges" width="4px" x="248px" y="184px" /></svg>