<?xml version="1.0" encoding="utf-8" ?>
<svg baseProfile="full" height="96px" version="1.1" width="256px" xmlns="http://www.w3.org/2000/svg" xmlns:ev="http://www.w3.org/2001/xml-events" xmlns:xlink="http://www.w3.org/1999/xlink"><defs /><rect fill="rgb(255,255,255)" height="4px" shape-rendering="crispEdges" width="4px" x="0px" y="24px" /><rect fill="rgb(255,255,255)" height="4px" shape-rendering="crispEdges" width="4px" x="0px" y="36px" /><rect fill="rgb(255,255,255)" height="4px" shape-rendering="crispEdges" width="4px" x="0px" y="40px" /><rect fill="rgb(255,255,255)" height="4px" shape-rendering="crispEdges" width="4px" x="0px" y="52px" /><rect fill="rgb(255,255,255)" height="4px" shape-rendering="crispEdges" width="4px" x="0px" y="56px" /><rect fill="rgb(255,255,255)" height="4px" shape-rendering="crispEdges" width="4px" x="0px" y="60px" /><rect fill="rgb(255,255,255)" height="4px" shape-rendering="crispEdges" width="4px" x="0px" y="88px" /><rect fill="rgb(255,255,255)" height="4px" shape-rendering="crispEdges" width="4px" x="0px" y="92px" /><rect fill="rgb(255,255,255)" height="4px" shape-rendering="crispEdges" width="4px" x="4px" y="20px" /><rect fill="rgb(255,255,255)" height="4px" shape-rendering="crispEdges" width="4px" x="4px" y="28px" /><rect fill="rgb(255,255,255)" height="4px" shape-rendering="crispEdges" width="4px" x="4px" y="32px" /><rect fill="rgb(255,255,255)" height="4px" shape-rendering="crispEdges" width="4px" x="4px" y="44px" /><rect fill="rgb(255,255,255)" height="4px" shape-rendering="crispEdges" width="4px" x="4px" y="52px" /><rect fill="rgb(255,255,255)" height="4px" shape-rendering="crispEdges" width="4px" x="4px" y="56px" /><rect fill="rgb(255,255,255)" height="4px" shape-rendering="crispEdges" width="4px" x="4px" y="68px" /><rect fill="rgb(255,255,255)" height="4px" shape-rendering="crispEdges" width="4px" x="4px" y="88px" /><rect fill="rgb(255,255,255)" height="4px" shape-rendering="crispEdges" width="4px" x="8px" y="24px" /><rect fill="rgb(255,255,255)" height="4px" shape-rendering="crispEdges" width="4px" x="8px" y="36px" /><rect fill="rgb(255,255,255)" height="4px" shape-rendering="crispEdges" width="4px" x="8px" y="52px" /><rect fill="rgb(255,255,255)" height="4px" shape-rendering="crispEdges" width="4px" x="8px" y="56px" /><rect fill="rgb(255,255,255)" height="4px" shape-rendering="crispEdges" width="4px" x="8px" y="72px" /><rect fill="rgb(255,255,255)" height="4px" shape-rendering="crispEdges" width="4px" x="8px" y="88px" /><rect fill="rgb(255,255,255)" height="4px" shape-rendering="crispEdges" width="4px" x="16px" y="12px" /><rect fill="rgb(255,255,255)" height="4px" shape-rendering="crispEdges" width="4px" x="16px" y="20px" /><rect fill="rgb(255,255,255)" height="4px" shape-rendering="crispEdges" width="4px" x="16px" y="28px" /><rect fill="rgb(255,255,255)" height="4px" shape-rendering="crispEdges" width="4px" x="16px" y="40px" /><rect fill="rgb(255,255,255)" height="4px" shape-rendering="crispEdges" width="4px" x="16px" y="44px" /><rect fill="rgb(255,255,255)" height="4px" shape-rendering="crispEdges" width="4px" x="16px" y="52px" /><rect fill="rgb(255,255,255)" height="4px" shape-rendering="crispEdges" width="4px" x="16px" y="56px" /><rect fill="rgb(255,255,255)" height="4px" shape-rendering="crispEdges" width="4px" x="16px" y="76px" /><rect fill="rgb(255,255,255)" height="4px" shape-rendering="crispEdges" width="4px" x="16px" y="88px" /><rect fill="rgb(255,255,255)" height="4px" shape-rendering="crispEdges" width="4px" x="20px" y="4px" /><rect fill="rgb(255,255,255)" height="4px" shape-rendering="crispEdges" width="4px" x="20px" y="8px" /><rect fill="rgb(255,255,255)" height="4px" shape-rendering="crispEdges" width="4px" x="20px" y="20px" /><rect fill="rgb(255,255,255)" height="4px" shape-rendering="crispEdges" width="4px" x="20px" y="24px" /><rect fill="rgb(255,255,255)" height="4px" shape-rendering="crispEdges" width="4px" x="20px" y="28px" /><rect fill="rgb(255,255,255)" height="4px" shape-rendering="crispEdges" width="4px" x="20px" y="36px" /><rect fill="rgb(255,255,255)" height="4px" shape-rendering="crispEdges" width="4px" x="20px" y="40px" /><rect fill="rgb(255,255,255)" height="4px" shape-rendering="crispEdges" width="4px" x="20px" y="52px" /><rect fill="rgb(255,255,255)" height="4px" shape-rendering="crispEdges" width="4px" x="20px" y="56px" /><rect fill="rgb(255,255,255)" height="4px" shape-rendering="crispEdges" width="4px" x="20px" y="72px" /><rect fill="rgb(255,255,255)" height="4px" shape-rendering="crispEdges" width="4px" x="20px" y="88px" /><rect fill="rgb(255,255,255)" height="4px" shape-rendering="crispEdges" width="4px" x="24px" y="4px" /><rect fill="rgb(255,255,255)" height="4px" shape-rendering="crispEdges" width="4px" x="24px" y="8px" /><rect fill="rgb(255,255,255)" height="4px" shape-rendering="crispEdges" width="4px" x="24px" y="28px" /><rect fill="rgb(255,255,255)" height="4px" shape-rendering="crispEdges" width="4px" x="24px" y="40px" /><rect fill="rgb(255,255,255)" height="4px" shape-rendering="crispEdges" width="4px" x="24px" y="44px" /><rect fill="rgb(255,255,255)" height="4px" shape-rendering="crispEdges" width="4px" x="24px" y="60px" /><rect fill="rgb(255,255,255)" height="4px" shape-rendering="crispEdges" width="4px" x="24px" y="76px" /><rect fill="rgb(255,255,255)" height="4px" shape-rendering="crispEdges" width="4px" x="24px" y="92px" /><rect fill="rgb(255,255,255)" height="4px" shape-rendering="crispEdges" width="4px" x="32px" y="4px" /><rect fill="rgb(255,255,255)" height="4px" shape-rendering="crispEdges" width="4px" x="32px" y="8px" /><rect fill="rgb(255,255,255)" height="4px" shape-rendering="crispEdges" width="4px" x="32px" y="20px" /><rect fill="rgb(255,255,255)" height="4px" shape-rendering="crispEdges" width="4px" x="32px" y="36px" /><rect fill="rgb(255,255,255)" height="4px" shape-rendering="crispEdges" width="4px" x="32px" y="40px" /><rect fill="rgb(255,255,255)" height="4px" shape-rendering="crispEdges" width="4px" x="32px" y="44px" /><rect fill="rgb(255,255,255)" height="4px" shape-rendering="crispEdges" width="4px" x="32px" y="52px" /><rect fill="rgb(255,255,255)" height="4px" shape-rendering="crispEdges" width="4px" x="32px" y="56px" /><rect fill="rgb(255,255,255)" height="4px" shape-rendering="crispEdges" width="4px" x="32px" y="60px" /><rect fill="rgb(255,255,255)" height="4px" shape-rendering="crispEdges" width="4px" x="32px" y="68px" /><rect fill="rgb(255,255,255)" height="4px" shape-rendering="crispEdges" width="4px" x="32px" y="72px" /><rect fill="rgb(255,255,255)" height="4px" shape-rendering="crispEdges" width="4px" x="32px" y="76px" /><rect fill="rgb(255,255,255)" height="4px" shape-rendering="crispEdges" width="4px" x="32px" y="88px" /><rect fill="rgb(255,255,255)" height="4px" shape-rendering="crispEdges" width="4px" x="32px" y="92px" /><rect fill="rgb(255,255,255)" height="4px" shape-rendering="crispEdges" width="4px" x="36px" y="24px" /><rect fill="rgb(255,255,255)" height="4px" shape-rendering="crispEdges" width="4px" x="36px" y="28px" /><rect fill="rgb(255,255,255)" height="4px" shape-rendering="crispEdges" width="4px" x="36px" y="36px" /><rect fill="rgb(255,255,255)" height="4px" shape-rendering="crispEdges" width="4px" x="36px" y="40px" /><rect fill="rgb(255,255,255)" height="4px" shape-rendering="crispEdges" width="4px" x="36px" y="44px" /><rect fill="rgb(255,255,255)" height="4px" shape-rendering="crispEdges" width="4px" x="36px" y="52px" /><rect fill="rgb(255,255,255)" height="4px" shape-rendering="crispEdges" width="4px" x="36px" y="56px" /><rect fill="rgb(255,255,255)" height="4px" shape-rendering="crispEdges" width="4px" x="36px" y="72px" /><rect fill="rgb(255,255,255)" height="4px" shape-rendering="crispEdges" width="4px" x="36px" y="76px" /><rect fill="rgb(255,255,255)" height="4px" shape-rendering="crispEdges" width="4px" x="36px" y="88px" /><rect fill="rgb(255,255,255)" height="4px" shape-rendering="crispEdges" width="4px" x="40px" y="4px" /><rect fill="rgb(255,255,255)" height="4px" shape-rendering="crispEdges" width="4px" x="40px" y="8px" /><rect fill="rgb(255,255,255)" height="4px" shape-rendering="crispEdges" width="4px" x="40px" y="28px" /><rect fill="rgb(255,255,255)" height="4px" shape-rendering="crispEdges" width="4px" x="40px" y="40px" /><rect fill="rgb(255,255,255)" height="4px" shape-rendering="crispEdges" width="4px" x="40px" y="44px" /><rect fill="rgb(255,255,255)" height="4px" shape-rendering="crispEdges" width="4px" x="40px" y="52px" /><rect fill="rgb(255,255,255)" height="4px" shape-rendering="crispEdges" width="4px" x="40px" y="60px" /><rect fill="rgb(255,255,255)" height="4px" shape-rendering="crispEdges" width="4px" x="48px" y="4px" /><rect fill="rgb(255,255,255)" height="4px" shape-rendering="crispEdges" width="4px" x="48px" y="12px" /><rect fill="rgb(255,255,255)" height="4px" shape-rendering="crispEdges" width="4px" x="48px" y="20px" /><rect fill="rgb(255,255,255)" height="4px" shape-rendering="crispEdges" width="4px" x="48px" y="28px" /><rect fill="rgb(255,255,255)" height="4px" shape-rendering="crispEdges" width="4px" x="48px" y="40px" /><rect fill="rgb(255,255,255)" height="4px" shape-rendering="crispEdges" width="4px" x="48px" y="60px" /><rect fill="rgb(255,255,255)" height="4px" shape-rendering="crispEdges" width="4px" x="48px" y="72px" /><rect fill="rgb(255,255,255)" height="4px" shape-rendering="crispEdges" width="4px" x="48px" y="76px" /><rect fill="rgb(255,255,255)" height="4px" shape-rendering="crispEdges" width="4px" x="48px" y="92px" /><rect fill="rgb(255,255,255)" height="4px" shape-rendering="crispEdges" width="4px" x="52px" y="8px" /><rect fill="rgb(255,255,255)" height="4px" shape-rendering="crispEdges" width="4px" x="52px" y="20px" /><rect fill="rgb(255,255,255)" height="4px" shape-rendering="crispEdges" width="4px" x="52px" y="24px" /><rect fill="rgb(255,255,255)" height="4px" shape-rendering="crispEdges" width="4px" x="52px" y="28px" /><rect fill="rgb(255,255,255)" height="4px" shape-rendering="crispEdges" width="4px" x="52px" y="36px" /><rect fill="rgb(255,255,255)" height="4px" shape-rendering="crispEdges" width="4px" x="52px" y="44px" /><rect fill="rgb(255,255,255)" height="4px" shape-rendering="crispEdges" width="4px" x="52px" y="56px" /><rect fill="rgb(255,255,255)" height="4px" shape-rendering="crispEdges" width="4px" x="52px" y="60px" /><rect fill="rgb(255,255,255)" height="4px" shape-rendering="crispEdges" width="4px" x="52px" y="68px" /><rect fill="rgb(255,255,255)" height="4px" shape-rendering="crispEdges" width="4px" x="52px" y="76px" /><rect fill="rgb(255,255,255)" height="4px" shape-rendering="crispEdges" width="4px" x="52px" y="88px" /><rect fill="rgb(255,255,255)" height="4px" shape-rendering="crispEdges" width="4px" x="52px" y="92px" /><rect fill="rgb(255,255,255)" height="4px" shape-rendering="crispEdges" width="4px" x="56px" y="4px" /><rect fill="rgb(255,255,255)" height="4px" shape-rendering="crispEdges" width="4px" x="56px" y="8px" /><rect fill="rgb(255,255,255)" height="4px" shape-rendering="crispEdges" width="4px" x="56px" y="12px" /><rect fill="rgb(255,255,255)" height="4px" shape-rendering="crispEdges" width="4px" x="56px" y="24px" /><rect fill="rgb(255,255,255)" height="4px" shape-rendering="crispEdges" width="4px" x="56px" y="28px" /><rect fill="rgb(255,255,255)" height="4px" shape-rendering="crispEdges" width="4px" x="56px" y="36px" /><rect fill="rgb(255,255,255)" height="4px" shape-rendering="crispEdges" width="4px" x="56px" y="44px" /><rect fill="rgb(255,255,255)" height="4px" shape-rendering="crispEdges" width="4px" x="56px" y="52px" /><rect fill="rgb(255,255,255)" height="4px" shape-rendering="crispEdges" width="4px" x="56px" y="88px" /><rect fill="rgb(255,255,255)" height="4px" shape-rendering="crispEdges" width="4px" x="64px" y="4px" /><rect fill="rgb(255,255,255)" height="4px" shape-rendering="crispEdges" width="4px" x="64px" y="12px" /><rect fill="rgb(255,255,255)" height="4px" shape-rendering="crispEdges" width="4px" x="64px" y="20px" /><rect fill="rgb(255,255,255)" height="4px" shape-rendering="crispEdges" width="4px" x="64px" y="24px" /><rect fill="rgb(255,255,255)" height="4px" shape-rendering="crispEdges" width="4px" x="64px" y="36px" /><rect fill="rgb(255,255,255)" height="4px" shape-rendering="crispEdges" width="4px" x="64px" y="40px" /><rect fill="rgb(255,255,255)" height="4px" shape-rendering="crispEdges" width="4px" x="64px" y="44px" /><rect fill="rgb(255,255,255)" height="4px" shape-rendering="crispEdges" width="4px" x="64px" y="52px" /><rect fill="rgb(255,255,255)" height="4px" shape-rendering="crispEdges" width="4px" x="64px" y="72px" /><rect fill="rgb(255,255,255)" height="4px" shape-rendering="crispEdges" width="4px" x="64px" y="76px" /><rect fill="rgb(255,255,255)" height="4px" shape-rendering="crispEdges" width="4px" x="64px" y="88px" /><rect fill="rgb(255,255,255)" height="4px" shape-rendering="crispEdges" width="4px" x="68px" y="0px" /><rect fill="rgb(255,255,255)" height="4px" shape-rendering="crispEdges" width="4px" x="68px" y="4px" /><rect fill="rgb(255,255,255)" height="4px" shape-rendering="crispEdges" width="4px" x="68px" y="8px" /><rect fill="rgb(255,255,255)" height="4px" shape-rendering="crispEdges" width="4px" x="68px" y="12px" /><rect fill="rgb(255,255,255)" height="4px" shape-rendering="crispEdges" width="4px" x="68px" y="24px" /><rect fill="rgb(255,255,255)" height="4px" shape-rendering="crispEdges" width="4px" x="68px" y="36px" /><rect fill="rgb(255,255,255)" height="4px" shape-rendering="crispEdges" width="4px" x="68px" y="44px" /><rect fill="rgb(255,255,255)" height="4px" shape-rendering="crispEdges" width="4px" x="68px" y="52px" /><rect fill="rgb(255,255,255)" height="4px" shape-rendering="crispEdges" width="4px" x="68px" y="56px" /><rect fill="rgb(255,255,255)" height="4px" shape-rendering="crispEdges" width="4px" x="68px" y="60px" /><rect fill="rgb(255,255,255)" height="4px" shape-rendering="crispEdges" width="4px" x="68px" y="68px" /><rect fill="rgb(255,255,255)" height="4px" shape-rendering="crispEdges" width="4px" x="68px" y="72px" /><rect fill="rgb(255,255,255)" height="4px" shape-rendering="crispEdges" width="4px" x="68px" y="76px" /><rect fill="rgb(255,255,255)" height="4px" shape-rendering="crispEdges" width="4px" x="68px" y="88px" /><rect fill="rgb(255,255,255)" height="4px" shape-rendering="crispEdges" width="4px" x="68px" y="92px" /><rect fill="rgb(255,255,255)" height="4px" shape-rendering="crispEdges" width="4px" x="72px" y="0px" /><rect fill="rgb(255,255,255)" height="4px" shape-rendering="crispEdges" width="4px" x="72px" y="8px" /><rect fill="rgb(255,255,255)" height="4px" shape-rendering="crispEdges" width="4px" x="72px" y="20px" /><rect fill="rgb(255,255,255)" height="4px" shape-rendering="crispEdges" width="4px" x="72px" y="24px" /><rect fill="rgb(255,255,255)" height="4px" shape-rendering="crispEdges" width="4px" x="72px" y="28px" /><rect fill="rgb(255,255,255)" height="4px" shape-rendering="crispEdges" width="4px" x="72px" y="40px" /><rect fill="rgb(255,255,255)" height="4px" shape-rendering="crispEdges" width="4px" x="72px" y="52px" /><rect fill="rgb(255,255,255)" height="4px" shape-rendering="crispEdges" width="4px" x="72px" y="88px" /><rect fill="rgb(255,255,255)" height="4px" shape-rendering="crispEdges" width="4px" x="80px" y="0px" /><rect fill="rgb(255,255,255)" height="4px" shape-rendering="crispEdges" width="4px" x="80px" y="28px" /><rect fill="rgb(255,255,255)" height="4px" shape-rendering="crispEdges" width="4px" x="80px" y="36px" /><rect fill="rgb(255,255,255)" height="4px" shape-rendering="crispEdges" width="4px" x="80px" y="40px" /><rect fill="rgb(255,255,255)" height="4px" shape-rendering="crispEdges" width="4px" x="80px" y="44px" /><rect fill="rgb(255,255,255)" height="4px" shape-rendering="crispEdges" width="4px" x="80px" y="52px" /><rect fill="rgb(255,255,255)" height="4px" shape-rendering="crispEdges" width="4px" x="80px" y="56px" /><rect fill="rgb(255,255,255)" height="4px" shape-rendering="crispEdges" width="4px" x="80px" y="60px" /><rect fill="rgb(255,255,255)" height="4px" shape-rendering="crispEdges" width="4px" x="80px" y="72px" /><rect fill="rgb(255,255,255)" height="4px" shape-rendering="crispEdges" width="4px" x="80px" y="76px" /><rect fill="rgb(255,255,255)" height="4px" shape-rendering="crispEdges" width="4px" x="80px" y="88px" /><rect fill="rgb(255,255,255)" height="4px" shape-rendering="crispEdges" width="4px" x="80px" y="92px" /><rect fill="rgb(255,255,255)" height="4px" shape-rendering="crispEdges" width="4px" x="84px" y="4px" /><rect fill="rgb(255,255,255)" height="4px" shape-rendering="crispEdges" width="4px" x="84px" y="8px" /><rect fill="rgb(255,255,255)" height="4px" shape-rendering="crispEdges" width="4px" x="84px" y="20px" /><rect fill="rgb(255,255,255)" height="4px" shape-rendering="crispEdges" width="4px" x="84px" y="24px" /><rect fill="rgb(255,255,255)" height="4px" shape-rendering="crispEdges" width="4px" x="84px" y="36px" /><rect fill="rgb(255,255,255)" height="4px" shape-rendering="crispEdges" width="4px" x="84px" y="40px" /><rect fill="rgb(255,255,255)" height="4px" shape-rendering="crispEdges" width="4px" x="84px" y="44px" /><rect fill="rgb(255,255,255)" height="4px" shape-rendering="crispEdges" width="4px" x="84px" y="60px" /><rect fill="rgb(255,255,255)" height="4px" shape-rendering="crispEdges" width="4px" x="84px" y="72px" /><rect fill="rgb(255,255,255)" height="4px" shape-rendering="crispEdges" width="4px" x="84px" y="76px" /><rect fill="rgb(255,255,255)" height="4px" shape-rendering="crispEdges" width="4px" x="84px" y="92px" /><rect fill="rgb(255,255,255)" height="4px" shape-rendering="crispEdges" width="4px" x="88px" y="0px" /><rect fill="rgb(255,255,255)" height="4px" shape-rendering="crispEdges" width="4px" x="88px" y="4px" /><rect fill="rgb(255,255,255)" height="4px" shape-rendering="crispEdges" width="4px" x="88px" y="12px" /><rect fill="rgb(255,255,255)" height="4px" shape-rendering="crispEdges" width="4px" x="88px" y="20px" /><rect fill="rgb(255,255,255)" height="4px" shape-rendering="crispEdges" width="4px" x="88px" y="36px" /><rect fill="rgb(255,255,255)" height="4px" shape-rendering="crispEdges" width="4px" x="88px" y="44px" /><rect fill="rgb(255,255,255)" height="4px" shape-rendering="crispEdges" width="4px" x="88px" y="52px" /><rect fill="rgb(255,255,255)" height="4px" shape-rendering="crispEdges" width="4px" x="88px" y="56px" /><rect fill="rgb(255,255,255)" height="4px" shape-rendering="crispEdges" width="4px" x="88px" y="60px" /><rect fill="rgb(255,255,255)" height="4px" shape-rendering="crispEdges" width="4px" x="88px" y="76px" /><rect fill="rgb(255,255,255)" height="4px" shape-rendering="crispEdges" width="4px" x="88px" y="88px" /><rect fill="rgb(255,255,255)" height="4px" shape-rendering="crispEdges" width="4px" x="88px" y="92px" /><rect fill="rgb(255,255,255)" height="4px" shape-rendering="crispEdges" width="4px" x="96px" y="8px" /><rect fill="rgb(255,255,255)" height="4px" shape-rendering="crispEdges" width="4px" x="96px" y="12px" /><rect fill="rgb(255,255,255)" height="4px" shape-rendering="crispEdges" width="4px" x="96px" y="24px" /><rect fill="rgb(255,255,255)" height="4px" shape-rendering="crispEdges" width="4px" x="96px" y="28px" /><rect fill="rgb(255,255,255)" height="4px" shape-rendering="crispEdges" width="4px" x="96px" y="36px" /><rect fill="rgb(255,255,255)" height="4px" shape-rendering="crispEdges" width="4px" x="96px" y="40px" /><rect fill="rgb(255,255,255)" height="4px" shape-rendering="crispEdges" width="4px" x="96px" y="44px" /><rect fill="rgb(255,255,255)" height="4px" shape-rendering="crispEdges" width="4px" x="96px" y="52px" /><rect fill="rgb(255,255,255)" height="4px" shape-rendering="crispEdges" width="4px" x="96px" y="56px" /><rect fill="rgb(255,255,255)" height="4px" shape-rendering="crispEdges" width="4px" x="96px" y="72px" /><rect fill="rgb(255,255,255)" height="4px" shape-rendering="crispEdges" width="4px" x="96px" y="88px" /><rect fill="rgb(255,255,255)" height="4px" shape-rendering="crispEdges" width="4px" x="100px" y="0px" /><rect fill="rgb(255,255,255)" height="4px" shape-rendering="crispEdges" width="4px" x="100px" y="4px" /><rect fill="rgb(255,255,255)" height="4px" shape-rendering="crispEdges" width="4px" x="100px" y="8px" /><rect fill="rgb(255,255,255)" height="4px" shape-rendering="crispEdges" width="4px" x="100px" y="20px" /><rect fill="rgb(255,255,255)" height="4px" shape-rendering="crispEdges" width="4px" x="100px" y="24px" /><rect fill="rgb(255,255,255)" height="4px" shape-rendering="crispEdges" width="4px" x="100px" y="28px" /><rect fill="rgb(255,255,255)" height="4px" shape-rendering="crispEdges" width="4px" x="100px" y="36px" /><rect fill="rgb(255,255,255)" height="4px" shape-rendering="crispEdges" width="4px" x="100px" y="40px" /><rect fill="rgb(255,255,255)" height="4px" shape-rendering="crispEdges" width="4px" x="100px" y="60px" /><rect fill="rgb(255,255,255)" height="4px" shape-rendering="crispEdges" width="4px" x="100px" y="68px" /><rect fill="rgb(255,255,255)" height="4px" shape-rendering="crispEdges" width="4px" x="100px" y="72px" /><rect fill="rgb(255,255,255)" height="4px" shape-rendering="crispEdges" width="4px" x="100px" y="76px" /><rect fill="rgb(255,255,255)" height="4px" shape-rendering="crispEdges" width="4px" x="100px" y="92px" /><rect fill="rgb(255,255,255)" height="4px" shape-rendering="crispEdges" width="4px" x="104px" y="4px" /><rect fill="rgb(255,255,255)" height="4px" shape-rendering="crispEdges" width="4px" x="104px" y="12px" /><rect fill="rgb(255,255,255)" height="4px" shape-rendering="crispEdges" width="4px" x="104px" y="20px" /><rect fill="rgb(255,255,255)" height="4px" shape-rendering="crispEdges" width="4px" x="104px" y="36px" /><rect fill="rgb(255,255,255)" height="4px" shape-rendering="crispEdges" width="4px" x="104px" y="52px" /><rect fill="rgb(255,255,255)" height="4px" shape-rendering="crispEdges" width="4px" x="104px" y="56px" /><rect fill="rgb(255,255,255)" height="4px" shape-rendering="crispEdges" width="4px" x="104px" y="68px" /><rect fill="rgb(255,255,255)" height="4px" shape-rendering="crispEdges" width="4px" x="104px" y="72px" /><rect fill="rgb(255,255,255)" height="4px" shape-rendering="crispEdges" width="4px" x="104px" y="88px" /><rect fill="rgb(255,255,255)" height="4px" shape-rendering="crispEdges" width="4px" x="112px" y="20px" /><rect fill="rgb(255,255,255)" height="4px" shape-rendering="crispEdges" width="4px" x="112px" y="40px" /><rect fill="rgb(255,255,255)" height="4px" shape-rendering="crispEdges" width="4px" x="112px" y="52px" /><rect fill="rgb(255,255,255)" height="4px" shape-rendering="crispEdges" width="4px" x="112px" y="56px" /><rect fill="rgb(255,255,255)" height="4px" shape-rendering="crispEdges" width="4px" x="112px" y="60px" /><rect fill="rgb(255,255,255)" height="4px" shape-rendering="crispEdges" width="4px" x="112px" y="76px" /><rect fill="rgb(255,255,255)" height="4px" shape-rendering="crispEdges" width="4px" x="112px" y="88px" /><rect fill="rgb(255,255,255)" height="4px" shape-rendering="crispEdges" width="4px" x="112px" y="92px" /><rect fill="rgb(255,255,255)" height="4px" shape-rendering="crispEdges" width="4px" x="116px" y="8px" /><rect fill="rgb(255,255,255)" height="4px" shape-rendering="crispEdges" width="4px" x="116px" y="20px" /><rect fill="rgb(255,255,255)" height="4px" shape-rendering="crispEdges" width="4px" x="116px" y="28px" /><rect fill="rgb(255,255,255)" height="4px" shape-rendering="crispEdges" width="4px" x="116px" y="36px" /><rect fill="rgb(255,255,255)" height="4px" shape-rendering="crispEdges" width="4px" x="116px" y="44px" /><rect fill="rgb(255,255,255)" height="4px" shape-rendering="crispEdges" width="4px" x="116px" y="56px" /><rect fill="rgb(255,255,255)" height="4px" shape-rendering="crispEdges" width="4px" x="116px" y="60px" /><rect fill="rgb(255,255,255)" height="4px" shape-rendering="crispEdges" width="4px" x="116px" y="72px" /><rect fill="rgb(255,255,255)" height="4px" shape-rendering="crispEdges" width="4px" x="116px" y="76px" /><rect fill="rgb(255,255,255)" height="4px" shape-rendering="crispEdges" width="4px" x="116px" y="92px" /><rect fill="rgb(255,255,255)" height="4px" shape-rendering="crispEdges" width="4px" x="120px" y="4px" /><rect fill="rgb(255,255,255)" height="4px" shape-rendering="crispEdges" width="4px" x="120px" y="20px" /><rect fill="rgb(255,255,255)" height="4px" shape-rendering="crispEdges" width="4px" x="120px" y="24px" /><rect fill="rgb(255,255,255)" height="4px" shape-rendering="crispEdges" width="4px" x="120px" y="40px" /><rect fill="rgb(255,255,255)" height="4px" shape-rendering="crispEdges" width="4px" x="120px" y="44px" /><rect fill="rgb(255,255,255)" height="4px" shape-rendering="crispEdges" width="4px" x="120px" y="52px" /><rect fill="rgb(255,255,255)" height="4px" shape-rendering="crispEdges" width="4px" x="120px" y="56px" /><rect fill="rgb(255,255,255)" height="4px" shape-rendering="crispEdges" width="4px" x="120px" y="60px" /><rect fill="rgb(255,255,255)" height="4px" shape-rendering="crispEdges" width="4px" x="120px" y="72px" /><rect fill="rgb(255,255,255)" height="4px" shape-rendering="crispEdges" width="4px" x="120px" y="76px" /><rect fill="rgb(255,255,255)" height="4px" shape-rendering="crispEdges" width="4px" x="120px" y="88px" /><rect fill="rgb(255,255,255)" height="4px" shape-rendering="crispEdges" width="4px" x="128px" y="24px" /><rect fill="rgb(255,255,255)" height="4px" shape-rendering="crispEdges" width="4px" x="128px" y="28px" /><rect fill="rgb(255,255,255)" height="4px" shape-rendering="crispEdges" width="4px" x="128px" y="36px" /><rect fill="rgb(255,255,255)" height="4px" shape-rendering="crispEdges" width="4px" x="128px" y="40px" /><rect fill="rgb(255,255,255)" height="4px" shape-rendering="crispEdges" width="4px" x="128px" y="44px" /><rect fill="rgb(255,255,255)" height="4px" shape-rendering="crispEdges" width="4px" x="128px" y="52px" /><rect fill="rgb(255,255,255)" height="4px" shape-rendering="crispEdges" width="4px" x="128px" y="60px" /><rect fill="rgb(255,255,255)" height="4px" shape-rendering="crispEdges" width="4px" x="128px" y="68px" /><rect fill="rgb(255,255,255)" height="4px" shape-rendering="crispEdges" width="4px" x="128px" y="72px" /><rect fill="rgb(255,255,255)" height="4px" shape-rendering="crispEdges" width="4px" x="128px" y="76px" /><rect fill="rgb(255,255,255)" height="4px" shape-rendering="crispEdges" width="4px" x="128px" y="84px" /><rect fill="rgb(255,255,255)" height="4px" shape-rendering="crispEdges" width="4px" x="128px" y="92px" /><rect fill="rgb(255,255,255)" height="4px" shape-rendering="crispEdges" width="4px" x="132px" y="8px" /><rect fill="rgb(255,255,255)" height="4px" shape-rendering="crispEdges" width="4px" x="132px" y="20px" /><rect fill="rgb(255,255,255)" height="4px" shape-rendering="crispEdges" width="4px" x="132px" y="24px" /><rect fill="rgb(255,255,255)" height="4px" shape-rendering="crispEdges" width="4px" x="132px" y="28px" /><rect fill="rgb(255,255,255)" height="4px" shape-rendering="crispEdges" width="4px" x="132px" y="40px" /><rect fill="rgb(255,255,255)" height="4px" shape-rendering="crispEdges" width="4px" x="132px" y="56px" /><rect fill="rgb(255,255,255)" height="4px" shape-rendering="crispEdges" width="4px" x="132px" y="72px" /><rect fill="rgb(255,255,255)" height="4px" shape-rendering="crispEdges" width="4px" x="132px" y="88px" /><rect fill="rgb(255,255,255)" height="4px" shape-rendering="crispEdges" width="4px" x="132px" y="92px" /><rect fill="rgb(255,255,255)" height="4px" shape-rendering="crispEdges" width="4px" x="136px" y="4px" /><rect fill="rgb(255,255,255)" height="4px" shape-rendering="crispEdges" width="4px" x="136px" y="12px" /><rect fill="rgb(255,255,255)" height="4px" shape-rendering="crispEdges" width="4px" x="136px" y="20px" /><rect fill="rgb(255,255,255)" height="4px" shape-rendering="crispEdges" width="4px" x="136px" y="24px" /><rect fill="rgb(255,255,255)" height="4px" shape-rendering="crispEdges" width="4px" x="136px" y="36px" /><rect fill="rgb(255,255,255)" height="4px" shape-rendering="crispEdges" width="4px" x="136px" y="40px" /><rect fill="rgb(255,255,255)" height="4px" shape-rendering="crispEdges" width="4px" x="136px" y="44px" /><rect fill="rgb(255,255,255)" height="4px" shape-rendering="crispEdges" width="4px" x="136px" y="52px" /><rect fill="rgb(255,255,255)" height="4px" shape-rendering="crispEdges" width="4px" x="136px" y="60px" /><rect fill="rgb(255,255,255)" height="4px" shape-rendering="crispEdges" width="4px" x="136px" y="76px" /><rect fill="rgb(255,255,255)" height="4px" shape-rendering="crispEdges" width="4px" x="136px" y="84px" /><rect fill="rgb(255,255,255)" height="4px" shape-rendering="crispEdges" width="4px" x="136px" y="92px" /><rect fill="rgb(255,255,255)" height="4px" shape-rendering="crispEdges" width="4px" x="144px" y="20px" /><rect fill="rgb(255,255,255)" height="4px" shape-rendering="crispEdges" width="4px" x="144px" y="24px" /><rect fill="rgb(255,255,255)" height="4px" shape-rendering="crispEdges" width="4px" x="144px" y="36px" /><rect fill="rgb(255,255,255)" height="4px" shape-rendering="crispEdges" width="4px" x="144px" y="44px" /><rect fill="rgb(255,255,255)" height="4px" shape-rendering="crispEdges" width="4px" x="144px" y="52px" /><rect fill="rgb(255,255,255)" height="4px" shape-rendering="crispEdges" width="4px" x="144px" y="68px" /><rect fill="rgb(255,255,255)" height="4px" shape-rendering="crispEdges" width="4px" x="144px" y="84px" /><rect fill="rgb(255,255,255)" height="4px" shape-rendering="crispEdges" width="4px" x="144px" y="92px" /><rect fill="rgb(255,255,255)" height="4px" shape-rendering="crispEdges" width="4px" x="148px" y="4px" /><rect fill="rgb(255,255,255)" height="4px" shape-rendering="crispEdges" width="4px" x="148px" y="12px" /><rect fill="rgb(255,255,255)" height="4px" shape-rendering="crispEdges" width="4px" x="148px" y="20px" /><rect fill="rgb(255,255,255)" height="4px" shape-rendering="crispEdges" width="4px" x="148px" y="24px" /><rect fill="rgb(255,255,255)" height="4px" shape-rendering="crispEdges" width="4px" x="148px" y="36px" /><rect fill="rgb(255,255,255)" height="4px" shape-rendering="crispEdges" width="4px" x="148px" y="40px" /><rect fill="rgb(255,255,255)" height="4px" shape-rendering="crispEdges" width="4px" x="148px" y="44px" /><rect fill="rgb(255,255,255)" height="4px" shape-rendering="crispEdges" width="4px" x="148px" y="56px" /><rect fill="rgb(255,255,255)" height="4px" shape-rendering="crispEdges" width="4px" x="148px" y="60px" /><rect fill="rgb(255,255,255)" height="4px" shape-rendering="crispEdges" width="4px" x="148px" y="76px" /><rect fill="rgb(255,255,255)" height="4px" shape-rendering="crispEdges" width="4px" x="148px" y="88px" /><rect fill="rgb(255,255,255)" height="4px" shape-rendering="crispEdges" width="4px" x="148px" y="92px" /><rect fill="rgb(255,255,255)" height="4px" shape-rendering="crispEdges" width="4px" x="152px" y="8px" /><rect fill="rgb(255,255,255)" height="4px" shape-rendering="crispEdges" width="4px" x="152px" y="20px" /><rect fill="rgb(255,255,255)" height="4px" shape-rendering="crispEdges" width="4px" x="152px" y="24px" /><rect fill="rgb(255,255,255)" height="4px" shape-rendering="crispEdges" width="4px" x="152px" y="28px" /><rect fill="rgb(255,255,255)" height="4px" shape-rendering="crispEdges" width="4px" x="152px" y="36px" /><rect fill="rgb(255,255,255)" height="4px" shape-rendering="crispEdges" width="4px" x="152px" y="44px" /><rect fill="rgb(255,255,255)" height="4px" shape-rendering="crispEdges" width="4px" x="152px" y="52px" /><rect fill="rgb(255,255,255)" height="4px" shape-rendering="crispEdges" width="4px" x="152px" y="84px" /><rect fill="rgb(255,255,255)" height="4px" shape-rendering="crispEdges" width="4px" x="152px" y="88px" /><rect fill="rgb(255,255,255)" height="4px" shape-rendering="crispEdges" width="4px" x="160px" y="40px" /><rect fill="rgb(255,255,255)" height="4px" shape-rendering="crispEdges" width="4px" x="160px" y="44px" /><rect fill="rgb(255,255,255)" height="4px" shape-rendering="crispEdges" width="4px" x="160px" y="52px" /><rect fill="rgb(255,255,255)" height="4px" shape-rendering="crispEdges" width="4px" x="160px" y="76px" /><rect fill="rgb(255,255,255)" height="4px" shape-rendering="crispEdges" width="4px" x="160px" y="88px" /><rect fill="rgb(255,255,255)" height="4px" shape-rendering="crispEdges" width="4px" x="164px" y="4px" /><rect fill="rgb(255,255,255)" height="4px" shape-rendering="crispEdges" width="4px" x="164px" y="8px" /><rect fill="rgb(255,255,255)" height="4px" shape-rendering="crispEdges" width="4px" x="164px" y="20px" /><rect fill="rgb(255,255,255)" height="4px" shape-rendering="crispEdges" width="4px" x="164px" y="28px" /><rect fill="rgb(255,255,255)" height="4px" shape-rendering="crispEdges" width="4px" x="164px" y="44px" /><rect fill="rgb(255,255,255)" height="4px" shape-rendering="crispEdges" width="4px" x="164px" y="52px" /><rect fill="rgb(255,255,255)" height="4px" shape-rendering="crispEdges" width="4px" x="164px" y="56px" /><rect fill="rgb(255,255,255)" height="4px" shape-rendering="crispEdges" width="4px" x="164px" y="60px" /><rect fill="rgb(255,255,255)" height="4px" shape-rendering="crispEdges" width="4px" x="164px" y="68px" /><rect fill="rgb(255,255,255)" height="4px" shape-rendering="crispEdges" width="4px" x="164px" y="72px" /><rect fill="rgb(255,255,255)" height="4px" shape-rendering="crispEdges" width="4px" x="164px" y="88px" /><rect fill="rgb(255,255,255)" height="4px" shape-rendering="crispEdges" width="4px" x="164px" y="92px" /><rect fill="rgb(255,255,255)" height="4px" shape-rendering="crispEdges" width="4px" x="168px" y="4px" /><rect fill="rgb(255,255,255)" height="4px" shape-rendering="crispEdges" width="4px" x="168px" y="8px" /><rect fill="rgb(255,255,255)" height="4px" shape-rendering="crispEdges" width="4px" x="168px" y="36px" /><rect fill="rgb(255,255,255)" height="4px" shape-rendering="crispEdges" width="4px" x="168px" y="40px" /><rect fill="rgb(255,255,255)" height="4px" shape-rendering="crispEdges" width="4px" x="168px" y="44px" /><rect fill="rgb(255,255,255)" height="4px" shape-rendering="crispEdges" width="4px" x="168px" y="60px" /><rect fill="rgb(255,255,255)" height="4px" shape-rendering="crispEdges" width="4px" x="168px" y="92px" /><rect fill="rgb(255,255,255)" height="4px" shape-rendering="crispEdges" width="4px" x="176px" y="36px" /><rect fill="rgb(255,255,255)" height="4px" shape-rendering="crispEdges" width="4px" x="176px" y="40px" /><rect fill="rgb(255,255,255)" height="4px" shape-rendering="crispEdges" width="4px" x="176px" y="44px" /><rect fill="rgb(255,255,255)" height="4px" shape-rendering="crispEdges" width="4px" x="176px" y="52px" /><rect fill="rgb(255,255,255)" height="4px" shape-rendering="crispEdges" width="4px" x="176px" y="56px" /><rect fill="rgb(255,255,255)" height="4px" shape-rendering="crispEdges" width="4px" x="176px" y="60px" /><rect fill="rgb(255,255,255)" height="4px" shape-rendering="crispEdges" width="4px" x="176px" y="68px" /><rect fill="rgb(255,255,255)" height="4px" shape-rendering="crispEdges" width="4px" x="176px" y="72px" /><rect fill="rgb(255,255,255)" height="4px" shape-rendering="crispEdges" width="4px" x="176px" y="76px" /><rect fill="rgb(255,255,255)" height="4px" shape-rendering="crispEdges" width="4px" x="176px" y="88px" /><rect fill="rgb(255,255,255)" height="4px" shape-rendering="crispEdges" width="4px" x="180px" y="8px" /><rect fill="rgb(255,255,255)" height="4px" shape-rendering="crispEdges" width="4px" x="180px" y="28px" /><rect fill="rgb(255,255,255)" height="4px" shape-rendering="crispEdges" width="4px" x="180px" y="40px" /><rect fill="rgb(255,255,255)" height="4px" shape-rendering="crispEdges" width="4px" x="180px" y="52px" /><rect fill="rgb(255,255,255)" height="4px" shape-rendering="crispEdges" width="4px" x="180px" y="60px" /><rect fill="rgb(255,255,255)" height="4px" shape-rendering="crispEdges" width="4px" x="180px" y="72px" /><rect fill="rgb(255,255,255)" height="4px" shape-rendering="crispEdges" width="4px" x="180px" y="76px" /><rect fill="rgb(255,255,255)" height="4px" shape-rendering="crispEdges" width="4px" x="180px" y="84px" /><rect fill="rgb(255,255,255)" height="4px" shape-rendering="crispEdges" width="4px" x="180px" y="88px" /><rect fill="rgb(255,255,255)" height="4px" shape-rendering="crispEdges" width="4px" x="180px" y="92px" /><rect fill="rgb(255,255,255)" height="4px" shape-rendering="crispEdges" width="4px" x="184px" y="4px" /><rect fill="rgb(255,255,255)" height="4px" shape-rendering="crispEdges" width="4px" x="184px" y="8px" /><rect fill="rgb(255,255,255)" height="4px" shape-rendering="crispEdges" width="4px" x="184px" y="12px" /><rect fill="rgb(255,255,255)" height="4px" shape-rendering="crispEdges" width="4px" x="184px" y="20px" /><rect fill="rgb(255,255,255)" height="4px" shape-rendering="crispEdges" width="4px" x="184px" y="28px" /><rect fill="rgb(255,255,255)" height="4px" shape-rendering="crispEdges" width="4px" x="184px" y="36px" /><rect fill="rgb(255,255,255)" height="4px" shape-rendering="crispEdges" width="4px" x="184px" y="44px" /><rect fill="rgb(255,255,255)" height="4px" shape-rendering="crispEdges" width="4px" x="184px" y="68px" /><rect fill="rgb(255,255,255)" height="4px" shape-rendering="crispEdges" width="4px" x="184px" y="84px" /><rect fill="rgb(255,255,255)" height="4px" shape-rendering="crispEdges" width="4px" x="184px" y="92px" /><rect fill="rgb(255,255,255)" height="4px" shape-rendering="crispEdges" width="4px" x="188px" y="8px" /><rect fill="rgb(255,255,255)" height="4px" shape-rendering="crispEdges" width="4px" x="192px" y="24px" /><rect fill="rgb(255,255,255)" height="4px" shape-rendering="crispEdges" width="4px" x="192px" y="36px" /><rect fill="rgb(255,255,255)" height="4px" shape-rendering="crispEdges" width="4px" x="192px" y="40px" /><rect fill="rgb(255,255,255)" height="4px" shape-rendering="crispEdges" width="4px" x="192px" y="44px" /><rect fill="rgb(255,255,255)" height="4px" shape-rendering="crispEdges" width="4px" x="192px" y="52px" /><rect fill="rgb(255,255,255)" height="4px" shape-rendering="crispEdges" width="4px" x="192px" y="72px" /><rect fill="rgb(255,255,255)" height="4px" shape-rendering="crispEdges" width="4px" x="192px" y="76px" /><rect fill="rgb(255,255,255)" height="4px" shape-rendering="crispEdges" width="4px" x="196px" y="12px" /><rect fill="rgb(255,255,255)" height="4px" shape-rendering="crispEdges" width="4px" x="196px" y="24px" /><rect fill="rgb(255,255,255)" height="4px" shape-rendering="crispEdges" width="4px" x="196px" y="44px" /><rect fill="rgb(255,255,255)" height="4px" shape-rendering="crispEdges" width="4px" x="196px" y="56px" /><rect fill="rgb(255,255,255)" height="4px" shape-rendering="crispEdges" width="4px" x="196px" y="76px" /><rect fill="rgb(255,255,255)" height="4px" shape-rendering="crispEdges" width="4px" x="196px" y="84px" /><rect fill="rgb(255,255,255)" height="4px" shape-rendering="crispEdges" width="4px" x="196px" y="88px" /><rect fill="rgb(255,255,255)" height="4px" shape-rendering="crispEdges" width="4px" x="196px" y="92px" /><rect fill="rgb(255,255,255)" height="4px" shape-rendering="crispEdges" width="4px" x="200px" y="8px" /><rect fill="rgb(255,255,255)" height="4px" shape-rendering="crispEdges" width="4px" x="200px" y="20px" /><rect fill="rgb(255,255,255)" height="4px" shape-rendering="crispEdges" width="4px" x="200px" y="28px" /><rect fill="rgb(255,255,255)" height="4px" shape-rendering="crispEdges" width="4px" x="200px" y="44px" /><rect fill="rgb(255,255,255)" height="4px" shape-rendering="crispEdges" width="4px" x="200px" y="60px" /><rect fill="rgb(255,255,255)" height="4px" shape-rendering="crispEdges" width="4px" x="200px" y="76px" /><rect fill="rgb(255,255,255)" height="4px" shape-rendering="crispEdges" width="4px" x="208px" y="8px" /><rect fill="rgb(255,255,255)" height="4px" shape-rendering="crispEdges" width="4px" x="208px" y="20px" /><rect fill="rgb(255,255,255)" height="4px" shape-rendering="crispEdges" width="4px" x="208px" y="28px" /><rect fill="rgb(255,255,255)" height="4px" shape-rendering="crispEdges" width="4px" x="208px" y="36px" /><rect fill="rgb(255,255,255)" height="4px" shape-rendering="crispEdges" width="4px" x="208px" y="40px" /><rect fill="rgb(255,255,255)" height="4px" shape-rendering="crispEdges" width="4px" x="208px" y="44px" /><rect fill="rgb(255,255,255)" height="4px" shape-rendering="crispEdges" width="4px" x="208px" y="52px" /><rect fill="rgb(255,255,255)" height="4px" shape-rendering="crispEdges" width="4px" x="208px" y="60px" /><rect fill="rgb(255,255,255)" height="4px" shape-rendering="crispEdges" width="4px" x="208px" y="72px" /><rect fill="rgb(255,255,255)" height="4px" shape-rendering="crispEdges" width="4px" x="208px" y="76px" /><rect fill="rgb(255,255,255)" height="4px" shape-rendering="crispEdges" width="4px" x="208px" y="84px" /><rect fill="rgb(255,255,255)" height="4px" shape-rendering="crispEdges" width="4px" x="208px" y="92px" /><rect fill="rgb(255,255,255)" height="4px" shape-rendering="crispEdges" width="4px" x="212px" y="8px" /><rect fill="rgb(255,255,255)" height="4px" shape-rendering="crispEdges" width="4px" x="212px" y="20px" /><rect fill="rgb(255,255,255)" height="4px" shape-rendering="crispEdges" width="4px" x="212px" y="28px" /><rect fill="rgb(255,255,255)" height="4px" shape-rendering="crispEdges" width="4px" x="212px" y="36px" /><rect fill="rgb(255,255,255)" height="4px" shape-rendering="crispEdges" width="4px" x="212px" y="40px" /><rect fill="rgb(255,255,255)" height="4px" shape-rendering="crispEdges" width="4px" x="212px" y="52px" /><rect fill="rgb(255,255,255)" height="4px" shape-rendering="crispEdges" width="4px" x="212px" y="56px" /><rect fill="rgb(255,255,255)" height="4px" shape-rendering="crispEdges" width="4px" x="212px" y="60px" /><rect fill="rgb(255,255,255)" height="4px" shape-rendering="crispEdges" width="4px" x="212px" y="72px" /><rect fill="rgb(255,255,255)" height="4px" shape-rendering="crispEdges" width="4px" x="212px" y="84px" /><rect fill="rgb(255,255,255)" height="4px" shape-rendering="crispEdges" width="4px" x="212px" y="88px" /><rect fill="rgb(255,255,255)" height="4px" shape-rendering="crispEdges" width="4px" x="212px" y="92px" /><rect fill="rgb(255,255,255)" height="4px" shape-rendering="crispEdges" width="4px" x="216px" y="8px" /><rect fill="rgb(255,255,255)" height="4px" shape-rendering="crispEdges" width="4px" x="216px" y="20px" /><rect fill="rgb(255,255,255)" height="4px" shape-rendering="crispEdges" width="4px" x="216px" y="28px" /><rect fill="rgb(255,255,255)" height="4px" shape-rendering="crispEdges" width="4px" x="216px" y="36px" /><rect fill="rgb(255,255,255)" height="4px" shape-rendering="crispEdges" width="4px" x="216px" y="40px" /><rect fill="rgb(255,255,255)" height="4px" shape-rendering="crispEdges" width="4px" x="216px" y="44px" /><rect fill="rgb(255,255,255)" height="4px" shape-rendering="crispEdges" width="4px" x="216px" y="72px" /><rect fill="rgb(255,255,255)" height="4px" shape-rendering="crispEdges" width="4px" x="216px" y="76px" /><rect fill="rgb(255,255,255)" height="4px" shape-rendering="crispEdges" width="4px" x="216px" y="88px" /><rect fill="rgb(255,255,255)" height="4px" shape-rendering="crispEdges" width="4px" x="224px" y="20px" /><rect fill="rgb(255,255,255)" height="4px" shape-rendering="crispEdges" width="4px" x="224px" y="28px" /><rect fill="rgb(255,255,255)" height="4px" shape-rendering="crispEdges" width="4px" x="224px" y="36px" /><rect fill="rgb(255,255,255)" height="4px" shape-rendering="crispEdges" width="4px" x="224px" y="40px" /><rect fill="rgb(255,255,255)" height="4px" shape-rendering="crispEdges" width="4px" x="224px" y="44px" /><rect fill="rgb(255,255,255)" height="4px" shape-rendering="crispEdges" width="4px" x="224px" y="56px" /><rect fill="rgb(255,255,255)" height="4px" shape-rendering="crispEdges" width="4px" x="224px" y="72px" /><rect fill="rgb(255,255,255)" height="4px" shape-rendering="crispEdges" width="4px" x="224px" y="76px" /><rect fill="rgb(255,255,255)" height="4px" shape-rendering="crispEdges" width="4px" x="224px" y="88px" /><rect fill="rgb(255,255,255)" height="4px" shape-rendering="crispEdges" width="4px" x="224px" y="92px" /><rect fill="rgb(255,255,255)" height="4px" shape-rendering="crispEdges" width="4px" x="228px" y="12px" /><rect fill="rgb(255,255,255)" height="4px" shape-rendering="crispEdges" width="4px" x="228px" y="24px" /><rect fill="rgb(255,255,255)" height="4px" shape-rendering="crispEdges" width="4px" x="228px" y="36px" /><rect fill="rgb(255,255,255)" height="4px" shape-rendering="crispEdges" width="4px" x="228px" y="52px" /><rect fill="rgb(255,255,255)" height="4px" shape-rendering="crispEdges" width="4px" x="228px" y="72px" /><rect fill="rgb(255,255,255)" height="4px" shape-rendering="crispEdges" width="4px" x="228px" y="88px" /><rect fill="rgb(255,255,255)" height="4px" shape-rendering="crispEdges" width="4px" x="232px" y="24px" /><rect fill="rgb(255,255,255)" height="4px" shape-rendering="crispEdges" width="4px" x="232px" y="40px" /><rect fill="rgb(255,255,255)" height="4px" shape-rendering="crispEdges" width="4px" x="232px" y="44px" /><rect fill="rgb(255,255,255)" height="4px" shape-rendering="crispEdges" width="4px" x="232px" y="56px" /><rect fill="rgb(255,255,255)" height="4px" shape-rendering="crispEdges" width="4px" x="232px" y="76px" /><rect fill="rgb(255,255,255)" height="4px" shape-rendering="crispEdges" width="4px" x="232px" y="84px" /><rect fill="rgb(255,255,255)" height="4px" shape-rendering="crispEdges" width="4px" x="232px" y="88px" /><rect fill="rgb(255,255,255)" height="4px" shape-rendering="crispEdges" width="4px" x="240px" y="12px" /><rect fill="rgb(255,255,255)" height="4px" shape-rendering="crispEdges" width="4px" x="240px" y="20px" /><rect fill="rgb(255,255,255)" height="4px" shape-rendering="crispEdges" width="4px" x="240px" y="28px" /><rect fill="rgb(255,255,255)" height="4px" shape-rendering="crispEdges" width="4px" x="240px" y="36px" /><rect fill="rgb(255,255,255)" height="4px" shape-rendering="crispEdges" width="4px" x="240px" y="40px" /><rect fill="rgb(255,255,255)" height="4px" shape-rendering="crispEdges" width="4px" x="240px" y="44px" /><rect fill="rgb(255,255,255)" height="4px" shape-rendering="crispEdges" width="4px" x="240px" y="60px" /><rect fill="rgb(255,255,255)" height="4px" shape-rendering="crispEdges" width="4px" x="240px" y="72px" /><rect fill="rgb(255,255,255)" height="4px" shape-rendering="crispEdges" width="4px" x="240px" y="76px" /><rect fill="rgb(255,255,255)" height="4px" shape-rendering="crispEdges" width="4px" x="240px" y="92px" /><rect fill="rgb(255,255,255)" height="4px" shape-rendering="crispEdges" width="4px" x="244px" y="8px" /><rect fill="rgb(255,255,255)" height="4px" shape-rendering="crispEdges" width="4px" x="244px" y="20px" /><rect fill="rgb(255,255,255)" height="4px" shape-rendering="crispEdges" width="4px" x="244px" y="24px" /><rect fill="rgb(255,255,255)" height="4px" shape-rendering="crispEdges" width="4px" x="244px" y="36px" /><rect fill="rgb(255,255,255)" height="4px" shape-rendering="crispEdges" width="4px" x="244px" y="44px" /><rect fill="rgb(255,255,255)" height="4px" shape-rendering="crispEdges" width="4px" x="244px" y="60px" /><rect fill="rgb(255,255,255)" height="4px" shape-rendering="crispEdges" width="4px" x="244px" y="72px" /><rect fill="rgb(255,255,255)" height="4px" shape-rendering="crispEdges" width="4px" x="244px" y="76px" /><rect fill="rgb(255,255,255)" height="4px" shape-rendering="crispEdges" width="4px" x="248px" y="4px" /><rect fill="rgb(255,255,255)" height="4px" shape-rendering="crispEdges" width="4px" x="248px" y="20px" /><rect fill="rgb(255,255,255)" height="4px" shape-rendering="crispEdges" width="4px" x="248px" y="24px" /><rect fill="rgb(255,255,255)" height="4px" shape-rendering="crispEdges" width="4px" x="248px" y="36px" /><rect fill="rgb(255,255,255)" height="4px" shape-rendering="crispEdges" width="4px" x="248px" y="40px" /><rect fill="rgb(255,255,255)" height="4px" shape-rendering="crispEdges" width="4px" x="248px" y="44px" /><rect fill="rgb(255,255,255)" height="4px" shape-rendering="crispEdges" width="4px" x="248px" y="60px" /><rect fill="rgb(255,255,255)" height="4px" shape-rendering="crispEdges" width="4px" x="248px" y="72px" /><rect fill="rgb(255,255,255)" height="4px" shape-rendering="crispEdges" width="4px" x="248px" y="76px" /><rect fill="rgb(255,255,255)" height="4px" shape-rendering="crispEdges" width="4px" x="248px" y="92px" /></svg>