<?xml version="1.0" encoding="utf-8" ?>
<svg baseProfile="full" height="96px" version="1.1" width="256px" xmlns="http://www.w3.org/2000/svg" xmlns:ev="http://www.w3.org/2001/xml-events" xmlns:xlink="http://www.w3.org/1999/xlink"><defs /><rect fill="rgb(255,255,255)" height="4px" shape-rendering="crispEdges" width="4px" x="0px" y="20px" /><rect fill="rgb(255,255,255)" height="4px" shape-rendering="crispEdges" width="4px" x="0px" y="24px" /><rect fill="rgb(255,255,255)" height="4px" shape-rendering="crispEdges" width="4px" x="0px" y="28px" /><rect fill="rgb(255,255,255)" height="4px" shape-rendering="crispEdges" width="4px" x="0px" y="32px" /><rect fill="rgb(255,255,255)" height="4px" shape-rendering="crispEdges" width="4px" x="0px" y="36px" /><rect fill="rgb(255,255,255)" height="4px" shape-rendering="crispEdges" width="4px" x="0px" y="40px" /><rect fill="rgb(255,255,255)" height="4px" shape-rendering="crispEdges" width="4px" x="0px" y="44px" /><rect fill="rgb(255,255,255)" height="4px" shape-rendering="crispEdges" width="4px" x="0px" y="48px" /><rect fill="rgb(255,255,255)" height="4px" shape-rendering="crispEdges" width="4px" x="0px" y="52px" /><rect fill="rgb(255,255,255)" height="4px" shape-rendering="crispEdges" width="4px" x="0px" y="56px" /><rect fill="rgb(255,255,255)" height="4px" shape-rendering="crispEdges" width="4px" x="0px" y="60px" /><rect fill="rgb(255,255,255)" height="4px" shape-rendering="crispEdges" width="4px" x="0px" y="64px" /><rect fill="rgb(255,255,255)" height="4px" shape-rendering="crispEdges" width="4px" x="0px" y="68px" /><rect fill="rgb(255,255,255)" height="4px" shape-rendering="crispEdges" width="4px" x="0px" y="72px" /><rect fill="rgb(255,255,255)" height="4px" shape-rendering="crispEdges" width="4px" x="4px" y="12px" /><rect fill="rgb(255,255,255)" height="4px" shape-rendering="crispEdges" width="4px" x="4px" y="16px" /><rect fill="rgb(255,255,255)" height="4px" shape-rendering="crispEdges" width="4px" x="4px" y="76px" /><rect fill="rgb(255,255,255)" height="4px" shape-rendering="crispEdges" width="4px" x="4px" y="80px" /><rect fill="rgb(255,255,255)" height="4px" shape-rendering="crispEdges" width="4px" x="8px" y="8px" /><rect fill="rgb(255,255,255)" height="4px" shape-rendering="crispEdges" width="4px" x="8px" y="84px" /><rect fill="rgb(255,255,255)" height="4px" shape-rendering="crispEdges" width="4px" x="12px" y="4px" /><rect fill="rgb(255,255,255)" height="4px" shape-rendering="crispEdges" width="4px" x="12px" y="20px" /><rect fill="rgb(255,255,255)" height="4px" shape-rendering="crispEdges" width="4px" x="12px" y="24px" /><rect fill="rgb(255,255,255)" height="4px" shape-rendering="crispEdges" width="4px" x="12px" y="28px" /><rect fill="rgb(255,255,255)" height="4px" shape-rendering="crispEdges" width="4px" x="12px" y="32px" /><rect fill="rgb(255,255,255)" height="4px" shape-rendering="crispEdges" width="4px" x="12px" y="36px" /><rect fill="rgb(255,255,255)" height="4px" shape-rendering="crispEdges" width="4px" x="12px" y="40px" /><rect fill="rgb(255,255,255)" height="4px" shape-rendering="crispEdges" width="4px" x="12px" y="44px" /><rect fill="rgb(255,255,255)" height="4px" shape-rendering="crispEdges" width="4px" x="12px" y="48px" /><rect fill="rgb(255,255,255)" height="4px" shape-rendering="crispEdges" width="4px" x="12px" y="52px" /><rect fill="rgb(255,255,255)" height="4px" shape-rendering="crispEdges" width="4px" x="12px" y="56px" /><rect fill="rgb(255,255,255)" height="4px" shape-rendering="crispEdges" width="4px" x="12px" y="60px" /><rect fill="rgb(255,255,255)" height="4px" shape-rendering="crispEdges" width="4px" x="12px" y="64px" /><rect fill="rgb(255,255,255)" height="4px" shape-rendering="crispEdges" width="4px" x="12px" y="68px" /><rect fill="rgb(255,255,255)" height="4px" shape-rendering="crispEdges" width="4px" x="12px" y="72px" /><rect fill="rgb(255,255,255)" height="4px" shape-rendering="crispEdges" width="4px" x="12px" y="88px" /><rect fill="rgb(255,255,255)" height="4px" shape-rendering="crispEdges" width="4px" x="16px" y="4px" /><rect fill="rgb(255,255,255)" height="4px" shape-rendering="crispEdges" width="4px" x="16px" y="16px" /><rect fill="rgb(255,255,255)" height="4px" shape-rendering="crispEdges" width="4px" x="16px" y="76px" /><rect fill="rgb(255,255,255)" height="4px" shape-rendering="crispEdges" width="4px" x="16px" y="88px" /><rect fill="rgb(255,255,255)" height="4px" shape-rendering="crispEdges" width="4px" x="20px" y="0px" /><rect fill="rgb(255,255,255)" height="4px" shape-rendering="crispEdges" width="4px" x="20px" y="12px" /><rect fill="rgb(255,255,255)" height="4px" shape-rendering="crispEdges" width="4px" x="20px" y="80px" /><rect fill="rgb(255,255,255)" height="4px" shape-rendering="crispEdges" width="4px" x="20px" y="92px" /><rect fill="rgb(255,255,255)" height="4px" shape-rendering="crispEdges" width="4px" x="24px" y="0px" /><rect fill="rgb(255,255,255)" height="4px" shape-rendering="crispEdges" width="4px" x="24px" y="12px" /><rect fill="rgb(255,255,255)" height="4px" shape-rendering="crispEdges" width="4px" x="24px" y="80px" /><rect fill="rgb(255,255,255)" height="4px" shape-rendering="crispEdges" width="4px" x="24px" y="92px" /><rect fill="rgb(255,255,255)" height="4px" shape-rendering="crispEdges" width="4px" x="28px" y="0px" /><rect fill="rgb(255,255,255)" height="4px" shape-rendering="crispEdges" width="4px" x="28px" y="12px" /><rect fill="rgb(255,255,255)" height="4px" shape-rendering="crispEdges" width="4px" x="28px" y="80px" /><rect fill="rgb(255,255,255)" height="4px" shape-rendering="crispEdges" width="4px" x="28px" y="92px" /><rect fill="rgb(255,255,255)" height="4px" shape-rendering="crispEdges" width="4px" x="32px" y="0px" /><rect fill="rgb(255,255,255)" height="4px" shape-rendering="crispEdges" width="4px" x="32px" y="12px" /><rect fill="rgb(255,255,255)" height="4px" shape-rendering="crispEdges" width="4px" x="32px" y="80px" /><rect fill="rgb(255,255,255)" height="4px" shape-rendering="crispEdges" width="4px" x="32px" y="92px" /><rect fill="rgb(255,255,255)" height="4px" shape-rendering="crispEdges" width="4px" x="36px" y="0px" /><rect fill="rgb(255,255,255)" height="4px" shape-rendering="crispEdges" width="4px" x="36px" y="12px" /><rect fill="rgb(255,255,255)" height="4px" shape-rendering="crispEdges" width="4px" x="36px" y="80px" /><rect fill="rgb(255,255,255)" height="4px" shape-rendering="crispEdges" width="4px" x="36px" y="92px" /><rect fill="rgb(255,255,255)" height="4px" shape-rendering="crispEdges" width="4px" x="40px" y="0px" /><rect fill="rgb(255,255,255)" height="4px" shape-rendering="crispEdges" width="4px" x="40px" y="12px" /><rect fill="rgb(255,255,255)" height="4px" shape-rendering="crispEdges" width="4px" x="40px" y="80px" /><rect fill="rgb(255,255,255)" height="4px" shape-rendering="crispEdges" width="4px" x="40px" y="92px" /><rect fill="rgb(255,255,255)" height="4px" shape-rendering="crispEdges" width="4px" x="44px" y="0px" /><rect fill="rgb(255,255,255)" height="4px" shape-rendering="crispEdges" width="4px" x="44px" y="12px" /><rect fill="rgb(255,255,255)" height="4px" shape-rendering="crispEdges" width="4px" x="44px" y="80px" /><rect fill="rgb(255,255,255)" height="4px" shape-rendering="crispEdges" width="4px" x="44px" y="92px" /><rect fill="rgb(255,255,255)" height="4px" shape-rendering="crispEdges" width="4px" x="48px" y="0px" /><rect fill="rgb(255,255,255)" height="4px" shape-rendering="crispEdges" width="4px" x="48px" y="12px" /><rect fill="rgb(255,255,255)" height="4px" shape-rendering="crispEdges" width="4px" x="48px" y="80px" /><rect fill="rgb(255,255,255)" height="4px" shape-rendering="crispEdges" width="4px" x="48px" y="92px" /><rect fill="rgb(255,255,255)" height="4px" shape-rendering="crispEdges" width="4px" x="52px" y="0px" /><rect fill="rgb(255,255,255)" height="4px" shape-rendering="crispEdges" width="4px" x="52px" y="12px" /><rect fill="rgb(255,255,255)" height="4px" shape-rendering="crispEdges" width="4px" x="52px" y="80px" /><rect fill="rgb(255,255,255)" height="4px" shape-rendering="crispEdges" width="4px" x="52px" y="92px" /><rect fill="rgb(255,255,255)" height="4px" shape-rendering="crispEdges" width="4px" x="56px" y="0px" /><rect fill="rgb(255,255,255)" height="4px" shape-rendering="crispEdges" width="4px" x="56px" y="12px" /><rect fill="rgb(255,255,255)" height="4px" shape-rendering="crispEdges" width="4px" x="56px" y="80px" /><rect fill="rgb(255,255,255)" height="4px" shape-rendering="crispEdges" width="4px" x="56px" y="92px" /><rect fill="rgb(255,255,255)" height="4px" shape-rendering="crispEdges" width="4px" x="60px" y="0px" /><rect fill="rgb(255,255,255)" height="4px" shape-rendering="crispEdges" width="4px" x="60px" y="12px" /><rect fill="rgb(255,255,255)" height="4px" shape-rendering="crispEdges" width="4px" x="60px" y="80px" /><rect fill="rgb(255,255,255)" height="4px" shape-rendering="crispEdges" width="4px" x="60px" y="92px" /><rect fill="rgb(255,255,255)" height="4px" shape-rendering="crispEdges" width="4px" x="64px" y="0px" /><rect fill="rgb(255,255,255)" height="4px" shape-rendering="crispEdges" width="4px" x="64px" y="12px" /><rect fill="rgb(255,255,255)" height="4px" shape-rendering="crispEdges" width="4px" x="64px" y="80px" /><rect fill="rgb(255,255,255)" height="4px" shape-rendering="crispEdges" width="4px" x="64px" y="92px" /><rect fill="rgb(255,255,255)" height="4px" shape-rendering="crispEdges" width="4px" x="68px" y="0px" /><rect fill="rgb(255,255,255)" height="4px" shape-rendering="crispEdges" width="4px" x="68px" y="12px" /><rect fill="rgb(255,255,255)" height="4px" shape-rendering="crispEdges" width="4px" x="68px" y="80px" /><rect fill="rgb(255,255,255)" height="4px" shape-rendering="crispEdges" width="4px" x="68px" y="92px" /><rect fill="rgb(255,255,255)" height="4px" shape-rendering="crispEdges" width="4px" x="72px" y="0px" /><rect fill="rgb(255,255,255)" height="4px" shape-rendering="crispEdges" width="4px" x="72px" y="12px" /><rect fill="rgb(255,255,255)" height="4px" shape-rendering="crispEdges" width="4px" x="72px" y="80px" /><rect fill="rgb(255,255,255)" height="4px" shape-rendering="crispEdges" width="4px" x="72px" y="92px" /><rect fill="rgb(255,255,255)" height="4px" shape-rendering="crispEdges" width="4px" x="76px" y="4px" /><rect fill="rgb(255,255,255)" height="4px" shape-rendering="crispEdges" width="4px" x="76px" y="16px" /><rect fill="rgb(255,255,255)" height="4px" shape-rendering="crispEdges" width="4px" x="76px" y="76px" /><rect fill="rgb(255,255,255)" height="4px" shape-rendering="crispEdges" width="4px" x="76px" y="88px" /><rect fill="rgb(255,255,255)" height="4px" shape-rendering="crispEdges" width="4px" x="80px" y="4px" /><rect fill="rgb(255,255,255)" height="4px" shape-rendering="crispEdges" width="4px" x="80px" y="20px" /><rect fill="rgb(255,255,255)" height="4px" shape-rendering="crispEdges" width="4px" x="80px" y="24px" /><rect fill="rgb(255,255,255)" height="4px" shape-rendering="crispEdges" width="4px" x="80px" y="28px" /><rect fill="rgb(255,255,255)" height="4px" shape-rendering="crispEdges" width="4px" x="80px" y="32px" /><rect fill="rgb(255,255,255)" height="4px" shape-rendering="crispEdges" width="4px" x="80px" y="36px" /><rect fill="rgb(255,255,255)" height="4px" shape-rendering="crispEdges" width="4px" x="80px" y="40px" /><rect fill="rgb(255,255,255)" height="4px" shape-rendering="crispEdges" width="4px" x="80px" y="44px" /><rect fill="rgb(255,255,255)" height="4px" shape-rendering="crispEdges" width="4px" x="80px" y="48px" /><rect fill="rgb(255,255,255)" height="4px" shape-rendering="crispEdges" width="4px" x="80px" y="52px" /><rect fill="rgb(255,255,255)" height="4px" shape-rendering="crispEdges" width="4px" x="80px" y="56px" /><rect fill="rgb(255,255,255)" height="4px" shape-rendering="crispEdges" width="4px" x="80px" y="60px" /><rect fill="rgb(255,255,255)" height="4px" shape-rendering="crispEdges" width="4px" x="80px" y="64px" /><rect fill="rgb(255,255,255)" height="4px" shape-rendering="crispEdges" width="4px" x="80px" y="68px" /><rect fill="rgb(255,255,255)" height="4px" shape-rendering="crispEdges" width="4px" x="80px" y="72px" /><rect fill="rgb(255,255,255)" height="4px" shape-rendering="crispEdges" width="4px" x="80px" y="88px" /><rect fill="rgb(255,255,255)" height="4px" shape-rendering="crispEdges" width="4px" x="84px" y="8px" /><rect fill="rgb(255,255,255)" height="4px" shape-rendering="crispEdges" width="4px" x="84px" y="84px" /><rect fill="rgb(255,255,255)" height="4px" shape-rendering="crispEdges" width="4px" x="88px" y="12px" /><rect fill="rgb(255,255,255)" height="4px" shape-rendering="crispEdges" width="4px" x="88px" y="16px" /><rect fill="rgb(255,255,255)" height="4px" shape-rendering="crispEdges" width="4px" x="88px" y="76px" /><rect fill="rgb(255,255,255)" height="4px" shape-rendering="crispEdges" width="4px" x="88px" y="80px" /><rect fill="rgb(255,255,255)" height="4px" shape-rendering="crispEdges" width="4px" x="92px" y="20px" /><rect fill="rgb(255,255,255)" height="4px" shape-rendering="crispEdges" width="4px" x="92px" y="24px" /><rect fill="rgb(255,255,255)" height="4px" shape-rendering="crispEdges" width="4px" x="92px" y="28px" /><rect fill="rgb(255,255,255)" height="4px" shape-rendering="crispEdges" width="4px" x="92px" y="32px" /><rect fill="rgb(255,255,255)" height="4px" shape-rendering="crispEdges" width="4px" x="92px" y="36px" /><rect fill="rgb(255,255,255)" height="4px" shape-rendering="crispEdges" width="4px" x="92px" y="40px" /><rect fill="rgb(255,255,255)" height="4px" shape-rendering="crispEdges" width="4px" x="92px" y="44px" /><rect fill="rgb(255,255,255)" height="4px" shape-rendering="crispEdges" width="4px" x="92px" y="48px" /><rect fill="rgb(255,255,255)" height="4px" shape-rendering="crispEdges" width="4px" x="92px" y="52px" /><rect fill="rgb(255,255,255)" height="4px" shape-rendering="crispEdges" width="4px" x="92px" y="56px" /><rect fill="rgb(255,255,255)" height="4px" shape-rendering="crispEdges" width="4px" x="92px" y="60px" /><rect fill="rgb(255,255,255)" height="4px" shape-rendering="crispEdges" width="4px" x="92px" y="64px" /><rect fill="rgb(255,255,255)" height="4px" shape-rendering="crispEdges" width="4px" x="92px" y="68px" /><rect fill="rgb(255,255,255)" height="4px" shape-rendering="crispEdges" width="4px" x="92px" y="72px" /><rect fill="rgb(255,255,255)" height="4px" shape-rendering="crispEdges" width="4px" x="196px" y="12px" /><rect fill="rgb(255,255,255)" height="4px" shape-rendering="crispEdges" width="4px" x="196px" y="16px" /><rect fill="rgb(255,255,255)" height="4px" shape-rendering="crispEdges" width="4px" x="196px" y="20px" /><rect fill="rgb(255,255,255)" height="4px" shape-rendering="crispEdges" width="4px" x="196px" y="24px" /><rect fill="rgb(255,255,255)" height="4px" shape-rendering="crispEdges" width="4px" x="196px" y="36px" /><rect fill="rgb(255,255,255)" height="4px" shape-rendering="crispEdges" width="4px" x="196px" y="40px" /><rect fill="rgb(255,255,255)" height="4px" shape-rendering="crispEdges" width="4px" x="196px" y="44px" /><rect fill="rgb(255,255,255)" height="4px" shape-rendering="crispEdges" width="4px" x="196px" y="48px" /><rect fill="rgb(255,255,255)" height="4px" shape-rendering="crispEdges" width="4px" x="196px" y="88px" /><rect fill="rgb(255,255,255)" height="4px" shape-rendering="crispEdges" width="4px" x="200px" y="8px" /><rect fill="rgb(255,255,255)" height="4px" shape-rendering="crispEdges" width="4px" x="200px" y="24px" /><rect fill="rgb(255,255,255)" height="4px" shape-rendering="crispEdges" width="4px" x="200px" y="36px" /><rect fill="rgb(255,255,255)" height="4px" shape-rendering="crispEdges" width="4px" x="200px" y="52px" /><rect fill="rgb(255,255,255)" height="4px" shape-rendering="crispEdges" width="4px" x="200px" y="72px" /><rect fill="rgb(255,255,255)" height="4px" shape-rendering="crispEdges" width="4px" x="200px" y="80px" /><rect fill="rgb(255,255,255)" height="4px" shape-rendering="crispEdges" width="4px" x="200px" y="92px" /><rect fill="rgb(255,255,255)" height="4px" shape-rendering="crispEdges" width="4px" x="204px" y="4px" /><rect fill="rgb(255,255,255)" height="4px" shape-rendering="crispEdges" width="4px" x="204px" y="24px" /><rect fill="rgb(255,255,255)" height="4px" shape-rendering="crispEdges" width="4px" x="204px" y="36px" /><rect fill="rgb(255,255,255)" height="4px" shape-rendering="crispEdges" width="4px" x="204px" y="56px" /><rect fill="rgb(255,255,255)" height="4px" shape-rendering="crispEdges" width="4px" x="204px" y="84px" /><rect fill="rgb(255,255,255)" height="4px" shape-rendering="crispEdges" width="4px" x="204px" y="92px" /><rect fill="rgb(255,255,255)" height="4px" shape-rendering="crispEdges" width="4px" x="208px" y="4px" /><rect fill="rgb(255,255,255)" height="4px" shape-rendering="crispEdges" width="4px" x="208px" y="16px" /><rect fill="rgb(255,255,255)" height="4px" shape-rendering="crispEdges" width="4px" x="208px" y="20px" /><rect fill="rgb(255,255,255)" height="4px" shape-rendering="crispEdges" width="4px" x="208px" y="24px" /><rect fill="rgb(255,255,255)" height="4px" shape-rendering="crispEdges" width="4px" x="208px" y="36px" /><rect fill="rgb(255,255,255)" height="4px" shape-rendering="crispEdges" width="4px" x="208px" y="40px" /><rect fill="rgb(255,255,255)" height="4px" shape-rendering="crispEdges" width="4px" x="208px" y="44px" /><rect fill="rgb(255,255,255)" height="4px" shape-rendering="crispEdges" width="4px" x="208px" y="56px" /><rect fill="rgb(255,255,255)" height="4px" shape-rendering="crispEdges" width="4px" x="208px" y="84px" /><rect fill="rgb(255,255,255)" height="4px" shape-rendering="crispEdges" width="4px" x="208px" y="92px" /><rect fill="rgb(255,255,255)" height="4px" shape-rendering="crispEdges" width="4px" x="212px" y="4px" /><rect fill="rgb(255,255,255)" height="4px" shape-rendering="crispEdges" width="4px" x="212px" y="16px" /><rect fill="rgb(255,255,255)" height="4px" shape-rendering="crispEdges" width="4px" x="212px" y="44px" /><rect fill="rgb(255,255,255)" height="4px" shape-rendering="crispEdges" width="4px" x="212px" y="56px" /><rect fill="rgb(255,255,255)" height="4px" shape-rendering="crispEdges" width="4px" x="212px" y="72px" /><rect fill="rgb(255,255,255)" height="4px" shape-rendering="crispEdges" width="4px" x="212px" y="80px" /><rect fill="rgb(255,255,255)" height="4px" shape-rendering="crispEdges" width="4px" x="212px" y="92px" /><rect fill="rgb(255,255,255)" height="4px" shape-rendering="crispEdges" width="4px" x="216px" y="4px" /><rect fill="rgb(255,255,255)" height="4px" shape-rendering="crispEdges" width="4px" x="216px" y="8px" /><rect fill="rgb(255,255,255)" height="4px" shape-rendering="crispEdges" width="4px" x="216px" y="12px" /><rect fill="rgb(255,255,255)" height="4px" shape-rendering="crispEdges" width="4px" x="216px" y="16px" /><rect fill="rgb(255,255,255)" height="4px" shape-rendering="crispEdges" width="4px" x="216px" y="44px" /><rect fill="rgb(255,255,255)" height="4px" shape-rendering="crispEdges" width="4px" x="216px" y="48px" /><rect fill="rgb(255,255,255)" height="4px" shape-rendering="crispEdges" width="4px" x="216px" y="52px" /><rect fill="rgb(255,255,255)" height="4px" shape-rendering="crispEdges" width="4px" x="216px" y="56px" /><rect fill="rgb(255,255,255)" height="4px" shape-rendering="crispEdges" width="4px" x="216px" y="88px" /><rect fill="rgb(255,255,255)" height="4px" shape-rendering="crispEdges" width="4px" x="228px" y="4px" /><rect fill="rgb(255,255,255)" height="4px" shape-rendering="crispEdges" width="4px" x="228px" y="8px" /><rect fill="rgb(255,255,255)" height="4px" shape-rendering="crispEdges" width="4px" x="228px" y="12px" /><rect fill="rgb(255,255,255)" height="4px" shape-rendering="crispEdges" width="4px" x="228px" y="16px" /><rect fill="rgb(255,255,255)" height="4px" shape-rendering="crispEdges" width="4px" x="228px" y="44px" /><rect fill="rgb(255,255,255)" height="4px" shape-rendering="crispEdges" width="4px" x="228px" y="48px" /><rect fill="rgb(255,255,255)" height="4px" shape-rendering="crispEdges" width="4px" x="228px" y="52px" /><rect fill="rgb(255,255,255)" height="4px" shape-rendering="crispEdges" width="4px" x="228px" y="56px" /><rect fill="rgb(255,255,255)" height="4px" shape-rendering="crispEdges" width="4px" x="228px" y="88px" /><rect fill="rgb(255,255,255)" height="4px" shape-rendering="crispEdges" width="4px" x="232px" y="4px" /><rect fill="rgb(255,255,255)" height="4px" shape-rendering="crispEdges" width="4px" x="232px" y="16px" /><rect fill="rgb(255,255,255)" height="4px" shape-rendering="crispEdges" width="4px" x="232px" y="44px" /><rect fill="rgb(255,255,255)" height="4px" shape-rendering="crispEdges" width="4px" x="232px" y="56px" /><rect fill="rgb(255,255,255)" height="4px" shape-rendering="crispEdges" width="4px" x="232px" y="72px" /><rect fill="rgb(255,255,255)" height="4px" shape-rendering="crispEdges" width="4px" x="232px" y="84px" /><rect fill="rgb(255,255,255)" height="4px" shape-rendering="crispEdges" width="4px" x="232px" y="92px" /><rect fill="rgb(255,255,255)" height="4px" shape-rendering="crispEdges" width="4px" x="236px" y="4px" /><rect fill="rgb(255,255,255)" height="4px" shape-rendering="crispEdges" width="4px" x="236px" y="16px" /><rect fill="rgb(255,255,255)" height="4px" shape-rendering="crispEdges" width="4px" x="236px" y="20px" /><rect fill="rgb(255,255,255)" height="4px" shape-rendering="crispEdges" width="4px" x="236px" y="24px" /><rect fill="rgb(255,255,255)" height="4px" shape-rendering="crispEdges" width="4px" x="236px" y="36px" /><rect fill="rgb(255,255,255)" height="4px" shape-rendering="crispEdges" width="4px" x="236px" y="40px" /><rect fill="rgb(255,255,255)" height="4px" shape-rendering="crispEdges" width="4px" x="236px" y="44px" /><rect fill="rgb(255,255,255)" height="4px" shape-rendering="crispEdges" width="4px" x="236px" y="56px" /><rect fill="rgb(255,255,255)" height="4px" shape-rendering="crispEdges" width="4px" x="236px" y="80px" /><rect fill="rgb(255,255,255)" height="4px" shape-rendering="crispEdges" width="4px" x="236px" y="92px" /><rect fill="rgb(255,255,255)" height="4px" shape-rendering="crispEdges" width="4px" x="240px" y="4px" /><rect fill="rgb(255,255,255)" height="4px" shape-rendering="crispEdges" width="4px" x="240px" y="24px" /><rect fill="rgb(255,255,255)" height="4px" shape-rendering="crispEdges" width="4px" x="240px" y="36px" /><rect fill="rgb(255,255,255)" height="4px" shape-rendering="crispEdges" width="4px" x="240px" y="56px" /><rect fill="rgb(255,255,255)" height="4px" shape-rendering="crispEdges" width="4px" x="240px" y="80px" /><rect fill="rgb(255,255,255)" height="4px" shape-rendering="crispEdges" width="4px" x="240px" y="92px" /><rect fill="rgb(255,255,255)" height="4px" shape-rendering="crispEdges" width="4px" x="244px" y="8px" /><rect fill="rgb(255,255,255)" height="4px" shape-rendering="crispEdges" width="4px" x="244px" y="24px" /><rect fill="rgb(255,255,255)" height="4px" shape-rendering="crispEdges" width="4px" x="244px" y="36px" /><rect fill="rgb(255,255,255)" height="4px" shape-rendering="crispEdges" width="4px" x="244px" y="52px" /><rect fill="rgb(255,255,255)" height="4px" shape-rendering="crispEdges" width="4px" x="244px" y="72px" /><rect fill="rgb(255,255,255)" height="4px" shape-rendering="crispEdges" width="4px" x="244px" y="84px" /><rect fill="rgb(255,255,255)" height="4px" shape-rendering="crispEdges" width="4px" x="244px" y="92px" /><rect fill="rgb(255,255,255)" height="4px" shape-rendering="crispEdges" width="4px" x="248px" y="12px" /><rect fill="rgb(255,255,255)" height="4px" shape-rendering="crispEdges" width="4px" x="248px" y="16px" /><rect fill="rgb(255,255,255)" height="4px" shape-rendering="crispEdges" width="4px" x="248px" y="20px" /><rect fill="rgb(255,255,255)" height="4px" shape-rendering="crispEdges" width="4px" x="248px" y="24px" /><rect fill="rgb(255,255,255)" height="4px" shape-rendering="crispEdges" width="4px" x="248px" y="36px" /><rect fill="rgb(255,255,255)" height="4px" shape-rendering="crispEdges" width="4px" x="248px" y="40px" /><rect fill="rgb(255,255,255)" height="4px" shape-rendering="crispEdges" width="4px" x="248px" y="44px" /><rect fill="rgb(255,255,255)" height="4px" shape-rendering="crispEdges" width="4px" x="248px" y="48px" /><rect fill="rgb(255,255,255)" height="4px" shape-rendering="crispEdges" width="4px" x="248px" y="88px" /></svg>